{"glyphs":{"0":{"ha":614,"x_min":0,"x_max":0,"o":"m 531 203 l 531 778 b 475 929 531 833 513 890 b 338 981 440 964 394 981 l 278 981 b 139 929 219 981 174 964 b 83 779 85 872 83 789 b 83 203 83 779 83 778 b 140 51 83 147 101 90 b 276 0 174 18 219 0 l 336 0 b 474 53 394 0 440 18 b 531 203 526 106 531 183 z m 126 201 b 126 314 126 201 126 201 b 126 778 126 314 126 314 b 171 899 126 779 126 853 b 276 938 196 924 232 938 l 338 938 b 419 917 369 938 397 931 l 154 104 b 126 201 128 146 126 193 z m 443 82 b 338 43 418 57 382 43 l 278 43 b 188 68 240 43 211 51 b 454 885 188 69 189 69 b 488 778 488 839 488 779 l 488 317 b 488 203 488 317 488 315 b 443 82 488 158 472 113 z "},"1":{"ha":421,"x_min":0,"x_max":0,"o":"m 338 960 b 315 982 338 972 328 982 b 299 978 310 982 303 981 l 6 768 b -3 751 0 764 -3 758 b 1 738 -3 747 -1 742 b 19 728 6 732 13 728 b 32 732 24 728 28 729 l 293 919 l 293 22 b 315 0 294 10 304 0 b 338 22 328 0 338 10 z "},"2":{"ha":626,"x_min":0,"x_max":0,"o":"m 539 47 l 126 47 l 126 261 b 169 379 126 304 140 350 b 274 418 194 406 229 418 l 374 418 b 508 469 426 418 474 433 b 564 613 558 519 564 590 b 564 619 564 617 564 619 l 564 729 b 564 778 564 729 564 729 b 564 785 564 778 564 781 b 508 928 564 807 558 878 b 374 979 475 963 429 979 l 274 979 b 139 928 218 979 172 963 b 83 785 89 878 83 807 b 83 778 83 781 83 778 b 104 757 83 765 93 757 b 126 779 106 757 126 769 b 169 897 126 789 128 854 b 274 936 194 922 229 936 l 374 936 b 478 897 418 936 453 922 b 521 779 519 854 521 788 b 521 621 521 779 521 778 b 478 500 521 576 507 531 b 374 463 453 475 418 463 b 369 461 372 463 371 461 l 274 461 b 139 410 218 461 172 444 b 83 268 89 360 83 290 b 83 261 83 264 83 261 l 83 25 b 104 3 83 13 93 3 l 539 3 b 561 25 551 3 561 13 b 539 47 561 38 551 47 z "},"3":{"ha":568,"x_min":0,"x_max":0,"o":"m 485 200 l 485 386 b 429 538 485 442 468 499 b 293 589 396 572 350 589 l 261 589 l 478 942 b 479 946 478 943 479 944 b 481 950 481 946 481 950 b 481 954 481 953 481 954 b 481 958 481 957 481 958 b 479 963 481 961 479 963 b 476 967 479 964 476 967 b 472 971 476 968 472 971 b 469 974 471 972 469 971 b 465 975 467 974 465 975 b 461 975 463 975 461 975 l 28 975 b 6 953 15 975 6 965 b 28 932 6 942 15 932 l 419 932 l 204 581 b 201 569 203 578 201 574 b 211 551 201 563 204 556 b 226 546 214 549 219 546 l 293 546 b 397 507 338 546 374 533 b 442 389 442 463 442 390 l 442 249 b 442 200 442 249 442 249 b 397 81 442 199 442 126 b 293 43 374 56 338 43 l 194 43 b 90 81 150 43 115 56 b 47 199 49 124 47 190 b 25 222 47 210 39 222 b 3 200 14 222 4 213 b 58 50 3 189 4 107 b 194 -1 92 17 138 -1 l 293 -1 b 429 50 350 -1 396 17 b 485 200 482 104 485 182 z "},"4":{"ha":574,"x_min":0,"x_max":0,"o":"m 489 403 l 489 963 b 468 985 489 975 479 985 b 450 976 467 985 454 981 b 28 397 450 975 449 975 b 24 383 25 393 24 388 b 31 367 24 378 26 371 b 47 358 35 363 40 358 l 444 358 l 444 25 b 467 3 444 13 454 3 b 489 25 479 3 489 13 l 489 358 l 571 358 b 593 381 583 358 593 368 b 571 403 593 393 583 403 z m 446 900 l 446 403 l 369 403 b 89 403 369 403 369 403 z "},"5":{"ha":653,"x_min":0,"x_max":0,"o":"m 565 389 b 510 540 565 444 547 501 b 374 592 476 575 431 592 l 126 592 l 126 935 l 547 935 b 569 956 560 935 569 944 b 547 978 569 968 560 978 l 107 978 b 83 956 93 978 83 968 l 83 549 l 372 549 b 478 510 413 549 450 539 b 521 393 519 468 521 401 b 521 251 521 393 521 392 b 521 203 521 251 521 251 b 478 83 521 160 507 114 b 374 46 453 58 418 46 l 275 46 b 171 83 231 46 194 58 b 126 203 126 129 126 201 b 106 225 126 215 117 225 b 83 203 93 225 83 215 b 139 53 83 192 85 110 b 275 1 172 19 218 1 l 374 1 b 510 53 431 1 476 19 b 565 201 564 110 565 192 b 565 389 565 201 565 203 z "},"6":{"ha":674,"x_min":0,"x_max":0,"o":"m 568 756 b 590 776 581 757 590 764 b 535 926 590 789 589 869 b 399 978 501 961 456 978 l 276 978 b 139 926 219 978 174 961 b 83 776 85 869 83 786 b 83 235 83 776 83 775 b 83 206 83 235 83 233 b 139 54 83 151 101 93 b 276 1 174 19 219 1 l 396 1 b 533 54 453 1 500 19 b 589 203 586 108 589 186 l 589 317 b 589 368 589 317 589 317 b 533 519 589 424 571 481 b 396 571 500 554 453 571 l 126 571 l 126 776 b 171 896 126 776 125 849 b 276 935 196 921 232 935 l 399 935 b 503 896 443 935 478 921 b 546 779 544 853 546 788 b 568 756 546 767 554 756 z m 381 528 b 396 528 381 528 382 528 b 501 489 440 528 476 515 b 546 369 544 446 546 378 b 546 232 546 369 546 368 b 546 204 546 232 546 232 b 501 85 546 161 532 115 b 396 46 476 58 440 46 l 276 46 b 171 85 232 46 196 58 b 126 206 126 131 126 204 l 126 317 b 126 528 126 317 126 317 z "},"7":{"ha":496,"x_min":0,"x_max":0,"o":"m 449 954 l 449 960 b 433 981 449 969 443 978 b 425 982 431 982 428 982 b -7 981 268 982 131 981 b -29 960 -19 981 -29 971 b -7 938 -29 947 -19 938 b 400 938 -7 938 -7 938 l 132 28 b 149 1 132 13 139 4 b 154 0 150 1 151 0 b 175 18 164 0 172 7 z "},"8":{"ha":672,"x_min":0,"x_max":0,"o":"m 589 315 b 589 367 589 315 589 315 b 533 518 589 422 571 479 b 493 549 521 531 508 540 b 533 579 508 557 521 567 b 589 726 586 633 589 711 l 589 776 b 533 929 589 832 572 889 b 396 982 499 964 453 982 l 307 982 b 276 982 307 982 306 982 b 139 929 219 982 172 964 b 83 781 86 875 83 797 l 83 743 b 83 731 83 743 83 743 b 139 578 83 674 101 617 b 179 549 151 567 164 556 b 139 518 164 540 151 531 b 83 369 86 464 83 386 l 83 231 b 83 204 83 231 83 231 b 139 53 83 149 101 92 b 276 0 172 18 219 0 l 364 0 b 368 1 365 0 367 0 l 396 1 b 533 53 453 1 499 18 b 589 201 586 107 589 186 z m 171 608 b 126 728 128 651 126 719 b 126 776 126 728 126 729 b 171 899 126 822 140 868 b 276 938 196 925 231 938 l 396 938 b 501 899 440 938 476 925 b 546 781 544 856 546 788 b 546 743 546 781 546 779 b 546 729 546 743 546 743 b 501 610 546 686 532 640 b 404 571 478 585 446 572 l 307 571 b 276 571 307 571 306 571 b 268 569 274 571 271 571 b 171 608 226 572 194 585 z m 501 83 b 396 44 476 57 440 44 l 307 44 b 276 44 307 44 306 44 b 171 83 232 44 196 57 b 126 203 128 126 126 194 b 126 315 126 203 126 204 b 126 368 126 315 126 315 b 171 488 126 411 140 457 b 268 526 194 511 226 525 l 404 526 b 501 488 446 526 478 513 b 546 368 544 444 546 376 b 546 231 546 368 546 367 b 546 203 546 231 546 231 b 501 83 546 203 547 131 z "},"9":{"ha":650,"x_min":0,"x_max":0,"o":"m 567 588 l 567 726 b 565 733 567 729 567 731 l 565 775 b 510 925 565 829 547 886 b 374 976 476 960 431 976 l 275 976 b 139 925 218 976 172 960 b 83 776 85 869 83 788 b 83 589 83 776 83 775 b 139 438 83 533 101 476 b 275 386 172 403 218 386 l 375 386 b 431 392 394 386 414 388 l 235 35 b 231 22 232 31 231 26 b 242 4 231 15 235 8 b 253 0 244 1 249 0 b 271 10 260 0 267 4 l 519 447 b 567 588 565 503 567 576 z m 346 429 b 275 431 344 429 343 431 b 171 468 231 431 196 443 b 128 586 129 511 128 578 b 128 726 128 586 128 588 b 128 776 128 726 128 726 b 171 894 128 819 142 864 b 275 933 196 919 231 933 l 374 933 b 478 894 418 933 453 919 b 522 775 522 849 522 776 l 522 665 l 522 586 b 488 476 522 547 511 506 l 479 468 b 375 429 454 443 419 429 z "},"A":{"ha":640,"x_min":0,"x_max":0,"o":"m 515 921 b 379 972 482 954 436 972 l 261 972 b 125 921 204 972 158 954 b 69 772 71 864 69 782 b 69 21 69 772 69 771 b 90 0 69 10 79 0 b 113 21 103 0 113 10 l 113 410 l 528 410 l 528 21 b 550 0 528 10 538 0 b 571 21 561 0 571 10 l 571 769 b 515 921 571 824 553 882 z m 113 453 l 113 771 b 156 890 113 814 126 860 b 261 929 181 915 217 929 l 379 929 b 483 890 424 929 460 915 b 528 772 526 847 528 781 b 528 453 528 772 528 771 z "},"B":{"ha":619,"x_min":0,"x_max":0,"o":"m 571 313 b 571 364 571 313 571 313 b 515 514 571 419 553 476 b 476 544 504 526 490 536 b 515 574 490 551 504 561 b 571 721 568 628 571 706 l 571 769 b 515 922 571 825 554 882 b 379 974 482 956 436 974 l 261 974 b 125 922 204 974 158 956 b 69 774 71 865 69 783 b 69 22 69 774 69 772 b 92 1 69 11 79 1 l 290 1 b 379 1 290 1 292 1 b 515 53 436 1 482 18 b 571 200 568 106 571 183 z m 157 892 b 261 931 182 917 217 931 l 379 931 b 485 892 424 931 460 917 b 528 774 526 849 528 782 b 528 738 528 774 528 772 l 528 724 b 485 604 528 681 514 635 b 388 565 461 581 429 567 l 292 565 b 113 565 292 565 290 565 l 113 772 b 157 892 113 774 113 846 z m 485 82 b 379 44 460 57 424 44 l 365 44 b 113 44 365 44 364 44 l 113 522 l 388 522 b 485 483 429 522 461 508 b 528 365 526 440 528 374 b 528 313 528 365 528 364 l 528 201 b 485 82 528 158 514 113 z "},"C":{"ha":636,"x_min":0,"x_max":0,"o":"m 575 201 b 556 222 574 213 565 222 b 531 200 540 222 531 213 b 488 82 531 190 529 125 b 382 43 463 56 428 43 l 261 43 b 157 81 217 43 182 56 b 113 201 113 126 113 200 l 113 771 b 157 890 113 814 126 860 b 211 922 171 906 190 915 b 261 928 226 926 243 928 l 371 928 b 471 890 413 928 447 914 b 514 772 513 847 514 781 b 535 749 514 760 522 749 b 557 769 547 749 557 758 b 557 776 557 769 557 772 b 501 921 557 799 551 871 b 365 972 468 954 422 972 l 261 972 b 201 964 240 972 221 969 b 125 921 172 957 146 942 b 69 772 71 864 69 782 b 69 208 69 772 69 771 l 69 201 b 125 51 69 147 88 90 b 261 0 158 17 204 0 l 382 0 b 518 51 439 0 485 17 b 575 201 574 107 575 189 z "},"D":{"ha":636,"x_min":0,"x_max":0,"o":"m 578 204 b 578 771 578 204 578 204 b 522 922 578 826 560 883 b 386 974 489 956 443 974 b 94 974 386 974 96 974 b 72 951 82 974 72 964 l 72 22 b 94 1 72 11 82 1 l 367 1 b 386 1 367 1 367 1 b 522 53 443 1 489 18 b 578 204 576 110 578 192 z m 490 83 b 386 44 465 57 431 44 l 307 44 b 115 44 307 44 307 44 l 115 931 l 386 931 b 490 892 431 931 465 917 b 533 778 529 853 533 796 l 533 207 b 535 201 535 206 535 203 b 490 83 535 201 536 129 z "},"E":{"ha":619,"x_min":0,"x_max":0,"o":"m 549 43 l 113 43 l 113 521 l 364 521 b 385 543 375 521 385 531 b 364 564 385 554 375 564 l 113 564 l 113 771 b 157 890 113 814 126 860 b 261 929 182 915 217 929 l 340 929 b 539 929 340 929 342 929 b 561 950 551 929 561 939 b 539 972 561 963 551 972 l 281 972 b 261 972 281 972 279 972 b 125 921 204 972 158 954 b 69 772 71 864 69 782 b 69 21 69 772 69 771 b 92 0 69 10 79 0 l 364 0 b 549 0 364 0 365 0 b 571 21 561 0 571 10 b 549 43 571 33 561 43 z "},"€":{"ha":654,"x_min":0,"x_max":0,"o":"m 589 201 b 571 222 588 214 581 222 b 546 201 556 222 546 213 b 501 82 546 192 544 125 b 397 43 476 57 440 43 l 276 43 b 171 81 231 43 196 57 b 128 200 129 125 128 192 b 128 388 128 200 128 201 l 446 388 b 467 410 457 388 467 397 b 444 432 465 422 457 432 l 128 432 l 128 540 l 446 540 b 467 564 457 540 467 550 b 444 585 465 576 456 585 l 128 585 l 128 772 b 171 890 128 815 142 860 b 226 922 185 906 204 917 b 275 928 240 926 257 928 l 381 928 b 485 890 425 928 460 917 b 529 772 529 846 529 772 b 550 749 529 757 539 749 b 571 771 563 750 571 760 b 515 921 571 782 569 864 b 381 972 483 954 436 972 l 276 972 b 215 965 253 972 233 971 b 139 921 186 958 161 942 b 83 772 85 864 83 782 b 83 585 83 772 83 771 l -14 585 b -35 564 -25 585 -35 575 b -14 540 -35 550 -25 540 l 83 540 l 83 432 l -14 432 b -35 410 -25 432 -35 422 b -14 388 -35 397 -25 388 l 83 388 l 83 201 b 140 51 83 147 101 90 b 276 0 174 18 219 0 l 397 0 b 532 51 454 0 500 18 b 589 201 588 107 589 190 z "},"F":{"ha":572,"x_min":0,"x_max":0,"o":"m 539 974 l 261 974 b 125 922 204 974 158 956 b 69 775 72 868 69 790 b 68 24 69 774 69 772 b 90 1 68 11 78 1 b 113 24 103 1 113 11 l 113 522 l 364 522 b 385 544 375 522 385 532 b 364 565 385 556 375 565 l 113 565 l 113 772 b 156 892 113 815 126 861 b 261 931 181 917 217 931 l 539 931 b 561 951 551 931 561 940 b 539 974 561 964 551 974 z "},"G":{"ha":636,"x_min":0,"x_max":0,"o":"m 574 204 b 574 364 574 204 574 204 b 568 381 574 371 572 376 b 551 386 564 383 558 386 l 353 386 b 331 364 340 386 331 376 b 353 343 331 353 340 343 l 531 343 l 531 200 b 488 85 531 157 517 114 b 382 46 463 58 426 46 l 261 46 b 157 85 217 46 182 58 b 113 203 114 128 113 194 b 113 774 113 203 113 204 b 157 893 113 817 126 863 b 211 925 171 908 189 919 b 261 932 226 929 243 932 l 365 932 b 469 893 410 932 446 918 b 514 775 513 850 514 783 b 535 751 514 764 522 753 b 557 774 549 751 557 763 b 501 924 557 790 556 868 b 365 975 468 957 422 975 l 261 975 b 201 968 240 975 219 972 b 125 924 171 960 146 944 b 69 776 72 869 69 792 l 69 204 b 125 54 69 150 88 93 b 261 3 158 19 204 3 l 382 3 b 518 54 439 3 485 19 b 574 204 571 108 574 186 z "},"H":{"ha":640,"x_min":0,"x_max":0,"o":"m 571 950 b 549 972 571 963 561 972 b 526 950 536 972 526 963 l 526 561 l 113 561 l 113 950 b 90 972 113 963 103 972 b 69 950 79 972 69 963 l 69 21 b 92 0 69 10 79 0 b 113 18 103 0 113 8 l 113 21 l 113 518 l 528 518 l 528 21 b 550 0 528 10 538 0 b 571 21 561 0 571 10 z "},"I":{"ha":185,"x_min":0,"x_max":0,"o":"m 115 960 b 93 982 115 972 106 982 b 72 960 82 982 72 972 b 69 471 71 931 69 697 b 72 22 69 244 71 25 b 93 0 72 10 82 0 b 115 22 106 0 115 10 z "},"J":{"ha":568,"x_min":0,"x_max":0,"o":"m 499 950 b 476 972 499 963 489 972 b 454 950 464 972 454 963 l 454 201 b 411 82 454 158 440 113 b 307 44 386 57 351 44 l 207 44 b 103 82 163 44 128 57 b 60 200 61 125 60 192 b 39 224 60 213 51 224 b 17 203 25 224 17 214 b 72 53 17 185 18 107 b 207 0 106 18 151 0 l 307 0 b 443 51 364 0 410 18 b 499 200 497 108 499 190 b 499 950 499 200 499 201 z "},"K":{"ha":621,"x_min":0,"x_max":0,"o":"m 572 222 l 572 364 b 517 514 572 418 554 475 b 468 549 503 528 486 540 b 500 574 481 556 490 564 b 557 722 556 631 557 713 b 557 749 557 722 557 724 b 556 951 557 750 557 751 b 535 974 556 964 546 974 b 513 951 522 974 513 964 l 513 772 b 513 724 513 772 513 771 b 469 604 513 681 499 635 b 375 565 446 581 415 568 l 113 565 l 113 951 b 92 974 113 964 103 974 b 69 951 79 974 69 964 l 69 22 b 92 1 69 11 79 1 b 114 22 104 1 114 11 l 114 522 l 378 522 b 485 485 425 522 460 510 b 529 364 529 439 529 365 l 529 229 b 528 222 528 225 528 224 l 528 22 b 550 1 529 11 539 1 b 572 22 563 1 572 11 z "},"L":{"ha":572,"x_min":0,"x_max":0,"o":"m 539 0 b 561 22 551 0 561 10 b 539 43 561 33 551 43 l 261 43 b 156 82 217 43 181 57 b 113 201 126 113 113 158 l 113 950 b 90 972 113 963 103 972 b 69 950 79 972 69 963 l 69 199 b 125 51 69 183 72 106 b 261 0 158 18 204 0 l 539 0 z "},"M":{"ha":763,"x_min":0,"x_max":0,"o":"m 672 972 b 650 957 661 972 653 965 l 583 743 b 382 96 583 743 583 743 l 201 674 b 113 957 201 674 201 674 b 94 972 110 965 103 972 b 69 951 81 972 69 964 l 69 22 b 92 0 71 10 81 0 b 114 22 104 0 114 10 l 114 783 l 106 853 l 122 782 l 361 15 b 381 0 361 15 365 0 b 403 15 390 0 403 6 l 642 782 l 658 853 l 650 783 l 650 22 b 672 0 650 10 660 0 b 693 22 683 0 693 10 l 693 951 b 672 972 693 965 682 972 z "},"N":{"ha":639,"x_min":0,"x_max":0,"o":"m 69 22 b 90 0 69 10 79 0 b 113 22 103 0 113 10 l 113 846 l 108 892 l 128 842 b 497 60 497 60 497 60 l 518 13 b 538 0 522 6 529 0 b 543 1 539 0 542 1 b 547 0 544 1 546 0 b 569 22 560 0 569 10 l 569 951 b 547 974 569 964 560 974 b 525 951 536 974 526 964 l 525 128 l 529 82 l 510 132 b 171 854 171 854 171 854 l 119 961 b 101 974 117 968 110 974 b 96 972 100 974 97 972 b 92 974 94 974 93 974 b 69 951 79 974 69 964 z "},"O":{"ha":640,"x_min":0,"x_max":0,"o":"m 571 771 b 515 921 571 826 553 883 b 379 974 482 956 436 974 l 261 974 b 125 921 204 974 158 956 b 69 774 71 865 69 783 b 69 203 69 774 69 772 b 125 53 69 149 88 92 b 261 0 158 18 204 0 l 379 0 b 515 53 436 0 482 18 b 571 199 567 106 571 182 b 571 771 571 200 571 771 z m 485 82 b 379 44 460 57 424 44 l 261 44 b 157 82 217 44 182 57 b 113 201 115 125 113 192 b 113 201 113 201 113 201 b 113 201 113 201 113 201 l 113 772 b 157 892 113 815 126 861 b 261 929 182 917 217 929 l 379 929 b 485 892 424 929 460 917 b 528 774 526 849 528 782 b 528 201 528 774 528 772 b 485 82 528 158 514 113 z "},"P":{"ha":619,"x_min":0,"x_max":0,"o":"m 571 613 l 571 749 b 571 771 571 749 571 749 b 515 922 571 825 553 883 b 379 974 482 956 436 974 l 261 974 b 125 922 204 974 158 956 b 69 775 72 868 69 790 l 69 22 b 90 1 69 11 79 1 b 113 22 103 1 113 11 l 113 411 l 379 411 b 515 463 436 411 482 429 b 571 613 569 519 571 601 z m 483 493 b 379 454 458 468 424 454 l 113 454 l 113 772 b 156 892 113 815 126 861 b 261 931 181 917 217 931 l 379 931 b 483 892 424 931 458 917 b 528 772 528 846 528 774 l 528 661 b 528 613 528 661 528 661 b 483 493 528 569 514 524 z "},"Q":{"ha":642,"x_min":0,"x_max":0,"o":"m 592 38 l 543 88 b 572 197 569 133 572 185 b 572 771 572 199 572 771 b 515 921 572 825 553 882 b 381 972 482 954 436 972 l 261 972 b 126 919 204 972 160 954 b 69 772 71 864 69 782 b 69 201 69 772 69 771 b 125 51 69 147 88 90 b 261 0 160 17 204 0 l 381 0 b 515 51 436 0 482 17 b 561 7 517 51 517 51 b 561 7 561 7 561 7 b 574 0 563 6 569 1 b 592 7 579 0 588 1 b 597 22 596 11 597 17 b 592 38 597 28 596 33 z m 381 43 l 261 43 b 157 82 217 43 182 56 b 114 200 115 124 114 190 b 114 771 114 200 114 200 b 157 890 114 814 128 860 b 261 929 182 915 217 929 l 381 929 b 485 890 425 929 460 915 b 528 772 526 847 528 781 b 528 200 528 772 528 771 b 511 119 528 172 522 144 l 407 221 b 392 228 403 226 397 228 b 376 222 386 228 381 226 b 371 207 374 218 371 213 b 376 192 371 199 374 194 l 417 149 b 433 135 417 149 417 149 l 486 82 b 381 43 457 54 419 43 z "},"R":{"ha":619,"x_min":0,"x_max":0,"o":"m 71 972 b 49 950 58 972 49 963 l 49 21 b 71 0 49 10 58 0 b 92 21 82 0 92 10 l 92 407 b 271 407 269 407 271 407 l 367 407 b 464 369 408 406 440 393 b 507 250 493 339 507 293 l 507 21 b 529 0 507 10 517 0 b 550 21 540 0 550 10 l 550 250 b 550 257 550 250 550 253 b 494 399 550 279 544 349 b 456 429 483 411 469 421 b 494 458 469 438 483 447 b 550 603 544 508 550 581 b 550 610 550 607 550 610 b 550 660 550 660 550 660 l 550 771 b 550 778 550 771 550 774 b 494 921 550 800 544 871 b 358 972 461 954 415 972 l 82 972 b 76 971 79 972 78 972 b 71 972 74 972 72 972 z m 92 451 l 92 929 b 344 929 343 929 344 929 l 358 929 b 464 890 403 929 439 915 b 507 771 493 860 507 814 l 507 660 b 507 607 507 608 507 607 b 464 489 507 599 506 532 b 367 451 440 465 408 451 l 269 451 z "},"S":{"ha":640,"x_min":0,"x_max":0,"o":"m 575 201 l 575 368 b 519 519 575 424 557 481 b 383 571 486 553 440 571 l 269 571 b 263 571 269 571 269 571 b 154 608 222 571 182 581 b 111 726 113 653 111 718 l 111 754 b 156 894 113 774 118 857 b 260 933 179 919 215 933 l 383 933 b 488 894 428 933 463 919 b 531 778 529 851 531 786 b 553 754 531 765 539 754 b 575 775 565 754 575 763 b 519 925 575 788 574 868 b 383 976 486 960 440 976 l 260 976 b 124 925 203 976 157 960 b 68 757 76 876 69 782 b 68 747 68 747 68 747 l 68 721 b 124 579 72 664 89 614 b 256 526 156 546 200 528 l 272 526 b 382 526 272 526 272 526 b 488 489 421 526 460 517 b 531 371 529 446 531 379 b 531 250 531 371 531 369 b 531 201 531 250 531 250 b 488 82 531 158 517 113 b 383 44 463 57 428 44 l 260 44 b 156 82 215 44 181 57 b 113 200 114 125 113 192 b 90 224 113 211 104 222 b 68 201 79 224 68 214 b 124 51 68 190 69 108 b 260 0 157 18 203 0 l 383 0 b 519 51 440 0 486 18 b 575 201 574 108 575 190 z "},"T":{"ha":610,"x_min":0,"x_max":0,"o":"m 569 974 l 40 974 b 19 953 29 974 19 964 b 40 931 19 940 29 931 l 283 931 l 283 24 b 306 1 283 11 293 1 b 326 24 317 1 326 11 l 326 931 l 569 931 b 592 953 582 931 592 940 b 569 974 592 964 582 974 z "},"U":{"ha":640,"x_min":0,"x_max":0,"o":"m 571 960 b 549 982 571 972 561 982 b 526 960 536 982 526 972 l 526 201 b 526 196 526 201 526 199 b 483 82 526 178 521 121 b 379 44 458 57 424 44 l 261 44 b 156 82 217 44 181 57 b 113 200 114 125 113 190 b 113 960 113 200 113 200 b 92 982 113 972 103 982 b 69 960 79 982 69 972 l 69 203 b 69 196 69 203 69 200 b 125 51 69 174 75 101 b 261 0 158 18 204 0 l 379 0 b 515 51 436 0 482 18 b 571 199 567 106 571 182 b 571 960 571 199 571 960 z "},"V":{"ha":564,"x_min":0,"x_max":0,"o":"m 551 972 b 525 957 538 972 529 968 l 282 101 l 39 957 b 17 972 35 967 26 972 l 11 972 b -4 949 0 968 -4 958 l 261 17 b 282 0 263 7 272 0 b 303 17 292 0 300 7 l 568 944 l 568 950 b 551 972 568 961 563 969 z "},"W":{"ha":788,"x_min":0,"x_max":0,"o":"m 786 967 b 760 949 774 967 763 960 l 560 117 l 360 949 b 336 967 358 960 347 967 b 317 943 324 961 317 953 l 371 715 l 228 117 l 26 949 b 4 967 24 960 14 967 b -15 946 -10 963 -15 956 l -15 940 l 207 19 b 222 3 208 10 214 4 b 15 0 15 0 15 0 b 222 3 222 3 222 3 b 226 1 222 1 226 1 b 232 3 229 1 232 3 b 15 0 15 0 15 0 b 232 3 232 3 232 3 b 249 19 240 4 247 10 l 393 622 l 539 19 b 556 3 540 10 547 4 b 15 0 15 0 15 0 b 556 3 556 3 556 3 b 560 1 557 1 558 1 b 565 3 563 1 565 1 b 15 0 15 0 15 0 b 565 3 565 3 565 3 b 581 19 574 4 579 10 l 803 940 b 786 967 803 954 796 963 z "},"X":{"ha":574,"x_min":0,"x_max":0,"o":"m 543 32 l 311 535 l 499 942 b 501 951 500 944 501 949 b 489 971 501 960 496 968 b 479 974 486 972 482 974 b 460 961 471 974 464 968 l 286 586 l 114 961 b 94 974 110 968 103 974 b 85 971 92 974 88 972 b 72 951 76 968 72 960 b 75 942 72 947 74 944 l 263 535 l 31 32 b 28 22 29 29 28 25 b 40 3 28 14 33 7 b 50 0 44 1 47 0 b 69 14 58 0 67 6 l 286 483 l 504 14 b 524 0 507 6 515 0 b 532 3 526 0 529 1 b 546 22 540 7 546 14 b 543 32 546 25 544 29 z "},"Y":{"ha":517,"x_min":0,"x_max":0,"o":"m 504 972 b 494 974 501 974 499 974 b 475 961 486 974 479 969 l 258 492 l 42 961 b 22 974 38 969 29 974 b 13 972 18 974 15 974 b 0 951 4 968 0 960 b 1 943 0 949 0 946 l 236 436 l 236 22 b 258 0 236 10 246 0 b 281 22 271 0 281 10 l 281 436 l 514 943 b 517 953 515 946 517 950 b 504 972 517 961 513 968 z "},"Z":{"ha":574,"x_min":0,"x_max":0,"o":"m 524 43 b 124 43 524 43 524 43 l 543 949 b 546 958 544 951 546 956 b 533 976 546 965 542 972 b 529 979 532 978 529 979 l 524 979 b 89 979 524 979 524 979 b 67 957 76 978 67 969 b 89 936 67 946 76 936 b 328 933 82 935 211 933 b 489 936 404 933 446 936 b 69 32 489 936 489 933 b 67 21 68 29 67 25 b 89 0 67 10 76 0 l 524 0 b 546 21 536 0 546 10 b 524 43 546 33 536 43 z "},"a":{"ha":640,"x_min":0,"x_max":0,"o":"m 515 921 b 379 972 482 954 436 972 l 261 972 b 125 921 204 972 158 954 b 69 772 71 864 69 782 b 69 21 69 772 69 771 b 90 0 69 10 79 0 b 113 21 103 0 113 10 l 113 410 l 528 410 l 528 21 b 550 0 528 10 538 0 b 571 21 561 0 571 10 l 571 769 b 515 921 571 824 553 882 z m 113 453 l 113 771 b 156 890 113 814 126 860 b 261 929 181 915 217 929 l 379 929 b 483 890 424 929 460 915 b 528 772 526 847 528 781 b 528 453 528 772 528 771 z "},"А":{"ha":640,"x_min":0,"x_max":0,"o":"m 515 921 b 379 972 482 954 436 972 l 261 972 b 125 921 204 972 158 954 b 69 772 71 864 69 782 b 69 21 69 772 69 771 b 90 0 69 10 79 0 b 113 21 103 0 113 10 l 113 410 l 528 410 l 528 21 b 550 0 528 10 538 0 b 571 21 561 0 571 10 l 571 769 b 515 921 571 824 553 882 z m 113 453 l 113 771 b 156 890 113 814 126 860 b 261 929 181 915 217 929 l 379 929 b 483 890 424 929 460 915 b 528 772 526 847 528 781 b 528 453 528 772 528 771 z "},"Б":{"ha":619,"x_min":0,"x_max":0,"o":"m 571 203 l 571 313 b 571 364 571 313 571 313 b 515 514 571 418 553 475 b 379 565 482 549 436 565 l 113 565 l 113 772 b 156 892 113 815 126 861 b 261 931 181 917 217 931 l 549 931 b 569 951 560 931 569 940 b 549 974 569 964 560 974 l 261 974 b 125 922 204 974 158 956 b 69 775 72 868 69 790 l 69 22 b 90 1 69 11 79 1 l 290 1 b 379 1 290 1 292 1 b 515 53 436 1 482 18 b 571 203 569 108 571 190 z m 483 82 b 379 44 458 57 424 44 l 113 44 l 113 522 l 364 522 b 379 522 364 522 365 522 b 483 483 424 522 458 510 b 528 365 526 440 528 374 b 528 313 528 365 528 364 l 528 201 b 483 82 528 158 514 113 z "},"В":{"ha":619,"x_min":0,"x_max":0,"o":"m 571 313 b 571 364 571 313 571 313 b 515 514 571 419 553 476 b 476 544 504 526 490 536 b 515 574 490 551 504 561 b 571 721 568 628 571 706 l 571 769 b 515 922 571 825 554 882 b 379 974 482 956 436 974 l 261 974 b 125 922 204 974 158 956 b 69 774 71 865 69 783 b 69 22 69 774 69 772 b 92 1 69 11 79 1 l 290 1 b 379 1 290 1 292 1 b 515 53 436 1 482 18 b 571 200 568 106 571 183 z m 157 892 b 261 931 182 917 217 931 l 379 931 b 485 892 424 931 460 917 b 528 774 526 849 528 782 b 528 738 528 774 528 772 l 528 724 b 485 604 528 681 514 635 b 388 565 461 581 429 567 l 292 565 b 113 565 292 565 290 565 l 113 772 b 157 892 113 774 113 846 z m 485 82 b 379 44 460 57 424 44 l 365 44 b 113 44 365 44 364 44 l 113 522 l 388 522 b 485 483 429 522 461 508 b 528 365 526 440 528 374 b 528 313 528 365 528 364 l 528 201 b 485 82 528 158 514 113 z "},"Г":{"ha":568,"x_min":0,"x_max":0,"o":"m 540 974 l 281 974 b 261 974 281 974 279 974 b 125 921 204 974 158 956 b 69 774 71 865 69 783 b 69 22 69 774 69 772 b 92 0 69 10 79 0 b 113 22 103 0 113 10 l 113 772 b 157 892 113 815 126 861 b 261 929 182 917 217 929 l 340 929 b 540 929 340 929 342 929 b 561 951 551 929 561 939 b 540 974 561 964 551 974 z "},"Д":{"ha":735,"x_min":0,"x_max":0,"o":"m 719 22 b 699 44 719 35 710 44 l 621 44 l 621 951 b 599 974 619 964 610 974 l 347 974 b 211 921 290 974 244 956 b 156 775 158 868 156 790 l 156 160 b 156 133 156 160 156 158 b 132 71 156 107 147 85 b 64 44 110 49 76 44 l 36 44 b 15 22 25 44 15 35 b 15 22 15 22 15 22 b 15 22 15 22 15 22 b 15 22 15 22 15 22 b 15 22 15 22 15 22 l 15 -99 b 36 -119 15 -110 25 -119 b 58 -99 49 -119 58 -110 l 58 1 b 67 1 58 1 60 1 l 676 1 l 676 -99 b 699 -119 676 -110 686 -119 b 719 -99 710 -119 719 -110 l 719 22 b 719 22 719 22 719 22 b 719 22 719 22 719 22 z m 199 133 l 199 158 b 199 772 199 158 199 158 b 242 892 199 815 213 861 b 347 929 267 917 303 929 l 576 929 l 576 44 l 167 44 b 199 133 188 67 199 97 z "},"Е":{"ha":619,"x_min":0,"x_max":0,"o":"m 549 43 l 113 43 l 113 521 l 364 521 b 385 543 375 521 385 531 b 364 564 385 554 375 564 l 113 564 l 113 771 b 157 890 113 814 126 860 b 261 929 182 915 217 929 l 340 929 b 539 929 340 929 342 929 b 561 950 551 929 561 939 b 539 972 561 963 551 972 l 281 972 b 261 972 281 972 279 972 b 125 921 204 972 158 954 b 69 772 71 864 69 782 b 69 21 69 772 69 771 b 92 0 69 10 79 0 l 364 0 b 549 0 364 0 365 0 b 571 21 561 0 571 10 b 549 43 571 33 561 43 z "},"Ё":{"ha":586,"x_min":0,"x_max":0,"o":"m 219 1044 b 239 1067 232 1044 239 1054 l 239 1151 b 219 1172 239 1163 232 1172 b 200 1151 207 1172 200 1163 l 200 1067 b 219 1044 200 1054 207 1044 z m 419 1044 b 438 1067 431 1044 438 1054 l 438 1151 b 419 1172 438 1163 431 1172 b 400 1151 407 1172 400 1163 l 400 1067 b 419 1044 400 1054 407 1044 z m 549 43 l 113 43 l 113 521 l 364 521 b 385 543 375 521 385 531 b 364 564 385 554 375 564 l 113 564 l 113 771 b 157 890 113 814 126 860 b 261 929 182 915 217 929 l 340 929 b 539 929 340 929 342 929 b 561 950 551 929 561 939 b 539 972 561 963 551 972 l 281 972 b 261 972 281 972 279 972 b 125 921 204 972 158 954 b 69 772 71 864 69 782 b 69 21 69 772 69 771 b 92 0 69 10 79 0 l 364 0 b 549 0 364 0 365 0 b 571 21 561 0 571 10 b 549 43 571 33 561 43 z "},"Ж":{"ha":765,"x_min":0,"x_max":0,"o":"m 694 363 b 639 513 694 418 676 475 b 592 546 625 526 610 538 b 625 572 604 554 615 563 b 681 721 679 629 681 711 b 681 950 681 721 681 722 b 658 972 681 963 671 972 b 638 953 647 972 638 964 l 638 722 b 593 603 638 679 624 633 b 500 564 571 579 539 567 l 406 564 l 406 950 b 383 972 404 963 394 972 b 361 950 371 972 361 963 l 361 564 l 265 564 b 171 603 225 567 194 579 b 128 721 129 646 128 713 b 128 950 128 721 128 722 b 107 972 128 963 118 972 b 106 972 107 972 107 972 b 85 950 94 972 85 963 l 85 722 b 140 572 85 667 103 610 b 174 546 150 563 161 554 b 125 513 156 538 139 526 b 69 364 71 457 69 375 b 69 21 69 364 69 363 b 92 0 69 10 79 0 b 113 21 103 0 113 10 l 113 364 b 157 482 113 364 113 436 b 261 521 182 508 217 521 l 361 521 l 361 21 b 383 0 363 10 372 0 b 406 21 396 0 406 10 l 406 521 l 503 521 b 608 482 547 521 583 508 b 651 364 650 439 651 372 b 651 21 651 364 651 363 b 674 0 651 10 661 0 b 696 21 686 0 696 10 z "},"З":{"ha":599,"x_min":0,"x_max":0,"o":"m 550 363 b 494 513 550 417 532 474 b 454 543 482 525 469 535 b 494 572 469 550 482 560 b 550 721 549 629 550 711 b 550 768 550 721 550 722 b 494 921 550 824 532 882 b 358 972 461 954 415 972 l 257 972 b 121 921 200 972 154 954 b 65 772 68 867 65 789 b 86 749 65 758 75 749 b 108 771 97 749 108 758 b 151 890 108 781 110 847 b 257 929 176 915 213 929 l 358 929 b 463 890 403 929 438 915 b 507 771 507 844 507 772 l 507 722 b 463 603 507 679 493 633 b 367 564 440 579 407 565 b 154 564 364 564 154 564 b 133 543 143 564 133 554 b 154 521 133 531 143 521 b 367 521 154 521 364 521 b 463 482 407 519 439 507 b 507 363 507 436 507 364 l 507 200 b 463 82 507 200 508 128 b 358 43 438 56 403 43 l 240 43 b 135 81 196 43 160 56 b 92 199 93 124 92 190 b 71 222 92 211 83 222 b 49 201 57 222 49 213 b 49 194 49 201 49 199 b 104 51 49 172 54 101 b 240 0 138 17 183 0 l 358 0 b 494 51 415 0 461 17 b 550 200 549 107 550 189 b 550 363 550 200 550 201 z "},"И":{"ha":639,"x_min":0,"x_max":0,"o":"m 569 951 b 547 974 569 964 560 974 b 543 972 546 974 544 974 b 538 974 542 972 539 974 b 519 961 529 974 522 968 l 468 854 b 129 132 468 854 468 854 l 110 82 l 114 128 l 114 951 b 92 974 113 964 103 974 b 69 951 79 974 69 964 l 69 22 b 92 0 69 10 79 0 b 96 1 93 0 94 1 b 101 0 97 1 100 0 b 121 13 110 0 117 6 l 142 60 b 511 842 142 60 142 60 l 531 892 l 526 846 l 526 22 b 549 0 526 10 536 0 b 569 22 560 0 569 10 z "},"Й":{"ha":640,"x_min":0,"x_max":0,"o":"m 206 1082 b 306 1036 207 1081 249 1038 b 399 1078 342 1036 374 1053 l 415 1096 b 422 1111 419 1100 422 1106 b 415 1126 422 1117 419 1122 b 400 1132 411 1131 406 1132 b 385 1126 394 1132 389 1131 l 367 1108 b 307 1079 349 1089 328 1079 b 236 1113 268 1081 238 1113 l 221 1129 b 206 1135 217 1133 211 1135 b 190 1129 200 1135 194 1133 b 183 1114 185 1125 183 1119 b 190 1099 183 1108 185 1103 z m 560 951 b 538 974 560 964 550 974 b 533 972 536 974 535 974 b 528 974 532 972 529 974 b 510 961 519 974 513 968 l 458 854 b 119 132 458 854 458 854 l 100 82 l 104 128 l 104 951 b 82 974 103 964 93 974 b 60 951 69 974 60 964 l 60 22 b 82 0 60 10 69 0 b 86 1 83 0 85 1 b 92 0 88 1 90 0 b 111 13 100 0 107 6 l 132 60 b 501 842 132 60 132 60 l 521 892 l 517 846 l 517 22 b 539 0 517 10 526 0 b 560 22 550 0 560 10 z "},"К":{"ha":621,"x_min":0,"x_max":0,"o":"m 572 222 l 572 364 b 517 514 572 418 554 475 b 468 549 503 528 486 540 b 500 574 481 556 490 564 b 557 722 556 631 557 713 b 557 749 557 722 557 724 b 556 951 557 750 557 751 b 535 974 556 964 546 974 b 513 951 522 974 513 964 l 513 772 b 513 724 513 772 513 771 b 469 604 513 681 499 635 b 375 565 446 581 415 568 l 113 565 l 113 951 b 92 974 113 964 103 974 b 69 951 79 974 69 964 l 69 22 b 92 1 69 11 79 1 b 114 22 104 1 114 11 l 114 522 l 378 522 b 485 485 425 522 460 510 b 529 364 529 439 529 365 l 529 229 b 528 222 528 225 528 224 l 528 22 b 550 1 529 11 539 1 b 572 22 563 1 572 11 z "},"Л":{"ha":642,"x_min":0,"x_max":0,"o":"m 571 951 b 549 974 571 964 561 974 l 297 974 b 163 921 240 974 196 956 b 106 774 107 865 106 783 b 106 160 106 774 106 772 b 106 133 106 160 106 160 b 83 71 106 107 99 86 b 11 44 58 46 19 44 l -12 44 b -35 22 -25 44 -35 35 b -12 1 -35 11 -25 1 l 10 1 b 114 39 47 1 86 14 b 150 133 138 63 150 94 l 150 158 b 150 772 150 158 150 158 b 193 892 150 815 164 861 b 297 931 218 917 253 931 l 528 931 l 528 22 b 550 1 528 11 538 1 b 572 22 563 1 572 11 z "},"М":{"ha":763,"x_min":0,"x_max":0,"o":"m 672 972 b 650 957 661 972 653 965 l 583 743 b 382 96 583 743 583 743 l 201 674 b 113 957 201 674 201 674 b 94 972 110 965 103 972 b 69 951 81 972 69 964 l 69 22 b 92 0 71 10 81 0 b 114 22 104 0 114 10 l 114 783 l 106 853 l 122 782 l 361 15 b 381 0 361 15 365 0 b 403 15 390 0 403 6 l 642 782 l 658 853 l 650 783 l 650 22 b 672 0 650 10 660 0 b 693 22 683 0 693 10 l 693 951 b 672 972 693 965 682 972 z "},"Н":{"ha":640,"x_min":0,"x_max":0,"o":"m 571 950 b 549 972 571 963 561 972 b 526 950 536 972 526 963 l 526 561 l 113 561 l 113 950 b 90 972 113 963 103 972 b 69 950 79 972 69 963 l 69 21 b 92 0 69 10 79 0 b 113 18 103 0 113 8 l 113 21 l 113 518 l 528 518 l 528 21 b 550 0 528 10 538 0 b 571 21 561 0 571 10 z "},"О":{"ha":640,"x_min":0,"x_max":0,"o":"m 571 771 b 515 921 571 826 553 883 b 379 974 482 956 436 974 l 261 974 b 125 921 204 974 158 956 b 69 774 71 865 69 783 b 69 203 69 774 69 772 b 125 53 69 149 88 92 b 261 0 158 18 204 0 l 379 0 b 515 53 436 0 482 18 b 571 199 567 106 571 182 b 571 771 571 200 571 771 z m 485 82 b 379 44 460 57 424 44 l 261 44 b 157 82 217 44 182 57 b 113 201 115 125 113 192 b 113 201 113 201 113 201 b 113 201 113 201 113 201 l 113 772 b 157 892 113 815 126 861 b 261 929 182 917 217 929 l 379 929 b 485 892 424 929 460 917 b 528 774 526 849 528 782 b 528 201 528 774 528 772 b 485 82 528 158 514 113 z "},"П":{"ha":642,"x_min":0,"x_max":0,"o":"m 571 951 b 550 974 571 964 561 974 l 94 974 b 69 951 79 974 69 964 b 69 951 69 951 69 951 b 69 951 69 951 69 951 l 69 22 b 92 1 71 11 81 1 b 114 22 104 1 114 11 l 114 929 l 528 929 l 528 22 b 550 1 528 11 538 1 b 572 22 563 1 572 11 z "},"Р":{"ha":619,"x_min":0,"x_max":0,"o":"m 571 613 l 571 749 b 571 771 571 749 571 749 b 515 922 571 825 553 883 b 379 974 482 956 436 974 l 261 974 b 125 922 204 974 158 956 b 69 775 72 868 69 790 l 69 22 b 90 1 69 11 79 1 b 113 22 103 1 113 11 l 113 411 l 379 411 b 515 463 436 411 482 429 b 571 613 569 519 571 601 z m 483 493 b 379 454 458 468 424 454 l 113 454 l 113 772 b 156 892 113 815 126 861 b 261 931 181 917 217 931 l 379 931 b 483 892 424 931 458 917 b 528 772 528 846 528 774 l 528 661 b 528 613 528 661 528 661 b 483 493 528 569 514 524 z "},"С":{"ha":636,"x_min":0,"x_max":0,"o":"m 575 201 b 556 222 574 213 565 222 b 531 200 540 222 531 213 b 488 82 531 190 529 125 b 382 43 463 56 428 43 l 261 43 b 157 81 217 43 182 56 b 113 201 113 126 113 200 l 113 771 b 157 890 113 814 126 860 b 211 922 171 906 190 915 b 261 928 226 926 243 928 l 371 928 b 471 890 413 928 447 914 b 514 772 513 847 514 781 b 535 749 514 760 522 749 b 557 769 547 749 557 758 b 557 776 557 769 557 772 b 501 921 557 799 551 871 b 365 972 468 954 422 972 l 261 972 b 201 964 240 972 221 969 b 125 921 172 957 146 942 b 69 772 71 864 69 782 b 69 208 69 772 69 771 l 69 201 b 125 51 69 147 88 90 b 261 0 158 17 204 0 l 382 0 b 518 51 439 0 485 17 b 575 201 574 107 575 189 z "},"Т":{"ha":610,"x_min":0,"x_max":0,"o":"m 569 974 l 40 974 b 19 953 29 974 19 964 b 40 931 19 940 29 931 l 283 931 l 283 24 b 306 1 283 11 293 1 b 326 24 317 1 326 11 l 326 931 l 569 931 b 592 953 582 931 592 940 b 569 974 592 964 582 974 z "},"У":{"ha":642,"x_min":0,"x_max":0,"o":"m 572 244 l 572 951 b 550 974 572 964 563 974 b 529 951 539 974 529 964 l 529 451 l 263 451 b 157 490 217 451 182 464 b 114 608 115 533 114 600 b 114 746 114 608 114 610 l 114 951 b 92 974 113 964 103 974 b 69 951 79 974 69 964 l 69 751 b 71 750 71 751 71 750 b 69 746 71 749 69 747 l 69 610 b 126 460 69 556 89 499 b 263 408 160 425 206 408 l 350 408 b 529 408 350 408 351 408 l 529 201 b 485 82 529 201 529 128 b 381 44 460 57 425 44 l 342 44 b 263 44 342 44 342 44 b 157 82 218 44 182 57 b 114 200 115 125 114 192 b 93 224 114 213 106 224 b 71 203 79 224 71 214 b 71 196 71 203 71 200 b 126 53 71 174 76 103 b 263 0 160 18 206 0 l 293 0 b 381 0 293 0 293 0 b 517 53 438 0 483 18 b 572 201 571 108 572 190 b 572 244 572 201 572 203 z "},"Ф":{"ha":765,"x_min":0,"x_max":0,"o":"m 696 660 l 696 769 b 640 921 696 825 678 882 b 504 972 607 954 561 972 l 261 972 b 125 921 204 972 158 954 b 69 778 75 871 69 800 b 69 771 69 774 69 771 l 69 660 b 69 381 69 660 69 660 b 69 374 69 381 69 378 b 125 229 69 351 75 279 b 261 178 158 196 204 178 l 349 178 b 350 24 349 178 349 178 b 371 1 350 11 360 1 b 393 24 383 1 393 11 l 393 178 l 504 178 b 640 229 561 178 607 196 b 696 376 693 283 696 361 z m 349 221 l 261 221 b 156 260 217 221 181 235 b 113 378 114 303 113 369 b 113 660 113 378 113 379 l 113 771 b 156 890 113 814 126 860 b 261 929 181 915 217 929 l 350 929 z m 610 260 b 504 221 585 235 549 221 l 393 221 l 393 929 l 504 929 b 610 890 549 929 585 915 b 653 772 651 847 653 781 b 653 719 653 772 653 771 l 653 379 b 610 260 653 336 639 290 z "},"Х":{"ha":574,"x_min":0,"x_max":0,"o":"m 543 32 l 311 535 l 499 942 b 501 951 500 944 501 949 b 489 971 501 960 496 968 b 479 974 486 972 482 974 b 460 961 471 974 464 968 l 286 586 l 114 961 b 94 974 110 968 103 974 b 85 971 92 974 88 972 b 72 951 76 968 72 960 b 75 942 72 947 74 944 l 263 535 l 31 32 b 28 22 29 29 28 25 b 40 3 28 14 33 7 b 50 0 44 1 47 0 b 69 14 58 0 67 6 l 286 483 l 504 14 b 524 0 507 6 515 0 b 532 3 526 0 529 1 b 546 22 540 7 546 14 b 543 32 546 25 544 29 z "},"Ц":{"ha":656,"x_min":0,"x_max":0,"o":"m 678 6 b 576 43 640 42 586 43 b 574 950 576 43 575 43 b 551 972 574 963 564 972 b 531 950 540 972 531 963 l 531 43 l 261 43 b 157 82 217 43 182 56 b 114 200 115 125 114 192 b 114 950 114 200 114 201 b 92 972 114 963 104 972 b 69 950 79 972 69 963 l 69 201 b 125 51 69 147 88 90 b 261 0 160 17 204 0 l 553 0 l 576 0 b 649 -26 576 0 621 0 b 671 -118 664 -42 671 -92 l 671 -144 b 693 -165 671 -156 681 -165 b 714 -144 704 -165 714 -156 l 714 -118 b 678 6 714 -79 703 -18 z "},"Ч":{"ha":621,"x_min":0,"x_max":0,"o":"m 551 953 b 529 975 551 965 542 975 b 507 953 517 975 507 965 l 507 453 l 240 453 b 136 492 196 453 161 467 b 93 610 94 535 93 601 b 93 747 93 610 93 611 l 93 953 b 71 975 92 965 82 975 b 49 953 58 974 49 965 l 49 611 b 106 461 49 557 67 500 b 240 410 139 428 183 410 l 508 410 l 508 24 b 529 1 508 11 518 1 b 551 24 542 1 551 11 z "},"Ш":{"ha":765,"x_min":0,"x_max":0,"o":"m 696 21 l 696 950 b 674 972 694 963 685 972 b 651 950 661 971 651 963 l 651 43 l 406 43 l 406 950 b 383 972 406 963 396 972 b 361 950 371 972 361 963 l 361 43 l 261 43 b 157 82 217 43 182 56 b 114 200 115 125 114 192 b 114 950 114 200 114 201 b 92 972 114 963 104 972 b 69 950 79 972 69 963 l 69 201 b 126 51 69 147 89 89 b 261 0 160 17 206 0 l 674 0 b 696 21 686 0 696 10 b 696 21 696 21 696 21 b 696 21 696 21 696 21 z "},"Щ":{"ha":782,"x_min":0,"x_max":0,"o":"m 800 6 b 699 43 761 42 707 43 b 694 950 699 43 697 43 b 674 972 694 963 685 972 b 651 950 661 971 651 963 l 651 43 l 406 43 l 406 950 b 383 972 406 963 396 972 b 361 950 371 972 361 963 l 361 43 l 263 43 b 157 82 217 43 182 56 b 114 200 115 125 114 192 b 114 950 114 200 114 201 b 92 972 114 963 104 972 b 69 950 79 972 69 963 l 69 201 b 126 51 69 147 89 89 b 263 0 160 17 206 0 l 674 0 l 697 0 b 769 -26 697 0 742 0 b 793 -117 785 -42 793 -90 l 793 -143 b 814 -164 793 -154 803 -164 b 836 -143 826 -164 836 -154 l 836 -117 b 800 6 836 -78 824 -18 z "},"Ъ":{"ha":701,"x_min":0,"x_max":0,"o":"m 653 203 l 653 314 b 653 361 653 314 653 314 b 597 513 653 415 635 474 b 461 564 564 546 518 564 l 194 564 l 194 835 b 156 938 192 875 181 911 b 63 974 133 961 101 974 l -6 974 b -28 953 -18 974 -28 964 b -6 931 -28 940 -18 931 l 61 931 b 125 907 89 931 110 922 b 151 835 151 881 151 836 l 151 204 b 207 53 151 150 169 92 b 343 1 240 19 286 1 l 461 1 b 597 53 518 1 564 19 b 653 203 651 110 653 192 z m 565 83 b 461 44 540 58 506 44 l 343 44 b 239 83 299 44 264 58 b 194 201 196 126 194 193 b 194 521 194 201 194 203 l 461 521 b 565 482 506 521 540 507 b 610 364 608 439 610 372 b 610 314 610 364 610 363 l 610 203 b 565 83 610 160 596 114 z "},"Ы":{"ha":749,"x_min":0,"x_max":0,"o":"m 678 950 b 657 972 678 963 668 972 b 635 950 644 972 635 963 l 635 21 b 657 0 635 10 644 0 b 679 21 669 0 679 10 z m 571 311 b 571 360 571 311 571 311 b 515 510 571 415 553 472 b 379 563 482 544 436 563 l 113 563 l 113 950 b 92 972 113 963 103 972 b 69 950 79 972 69 963 l 69 201 b 125 51 69 147 88 90 b 261 0 158 17 204 0 l 379 0 b 515 51 436 0 482 17 b 571 199 568 106 571 183 z m 485 82 b 379 43 460 56 424 43 l 261 43 b 157 82 217 43 182 56 b 113 200 114 125 113 192 b 113 518 113 200 113 201 l 379 518 b 485 481 424 518 460 506 b 528 363 526 438 528 371 b 528 225 528 363 528 361 b 528 200 528 225 528 225 b 485 82 528 157 514 113 z "},"Ь":{"ha":619,"x_min":0,"x_max":0,"o":"m 571 201 l 571 311 b 571 360 571 311 571 311 b 515 510 571 415 553 472 b 379 563 482 544 436 563 l 113 563 l 113 950 b 92 972 113 963 103 972 b 69 950 79 972 69 963 l 69 201 b 125 51 69 147 88 90 b 261 0 158 17 204 0 l 379 0 b 515 51 436 0 482 17 b 571 201 568 106 571 183 z m 485 82 b 379 43 460 56 424 43 l 261 43 b 157 82 217 43 182 56 b 113 201 113 128 113 200 l 113 518 l 379 518 b 485 481 424 518 460 506 b 528 363 526 438 528 371 b 528 311 528 363 528 361 l 528 200 b 485 82 528 157 514 113 z "},"Э":{"ha":586,"x_min":0,"x_max":0,"o":"m 517 201 l 517 311 b 517 542 517 311 517 311 l 517 769 b 517 776 517 769 517 772 b 461 921 517 799 511 871 b 325 972 428 954 382 972 l 224 972 b 89 919 167 972 122 954 b 32 771 33 864 32 782 b 54 749 32 760 42 749 b 76 771 67 749 76 760 b 119 890 76 781 78 847 b 224 929 144 915 179 929 l 325 929 b 431 890 369 929 406 915 b 474 772 472 847 474 781 b 474 564 474 772 474 771 l 122 564 b 100 543 110 564 100 554 b 122 521 100 531 110 521 l 474 521 l 474 294 b 474 200 474 294 474 294 b 431 82 474 157 460 113 b 325 43 406 56 371 43 l 207 43 b 103 82 163 43 128 56 b 58 200 58 128 58 200 b 38 222 58 214 49 222 b 15 201 25 221 15 214 b 71 51 15 189 17 107 b 207 0 104 17 150 0 l 325 0 b 461 51 382 0 428 17 b 517 194 511 101 517 172 b 517 201 517 199 517 201 z "},"Ю":{"ha":822,"x_min":0,"x_max":0,"o":"m 753 204 l 753 735 b 751 739 751 736 751 738 l 751 772 b 696 924 751 828 733 885 b 565 975 664 956 619 974 b 560 975 565 975 565 975 l 472 975 b 468 974 471 975 469 975 b 349 924 419 971 379 954 b 293 775 294 867 293 785 b 293 564 293 775 293 774 l 113 564 l 113 953 b 90 974 113 964 103 974 b 69 953 79 974 69 964 l 69 24 b 92 1 69 11 79 1 b 113 24 103 1 113 11 l 113 521 l 293 521 l 293 203 b 349 54 293 194 294 111 b 468 3 379 24 419 6 l 578 3 b 696 54 626 6 667 24 b 751 200 747 107 751 183 b 753 204 753 201 753 203 z m 665 83 b 560 46 640 58 604 46 l 485 46 b 381 83 440 46 406 58 b 338 203 339 126 338 193 l 338 314 b 338 774 338 314 338 314 b 381 893 338 817 351 863 b 485 932 406 918 440 932 l 560 932 b 665 893 604 932 640 918 b 708 775 707 850 708 783 b 708 754 708 775 708 774 l 708 203 b 665 83 708 160 694 114 z "},"Я":{"ha":619,"x_min":0,"x_max":0,"o":"m 528 972 b 522 971 526 972 525 972 b 517 972 521 972 519 972 l 240 972 b 104 921 183 972 138 954 b 49 778 54 871 49 800 b 49 771 49 774 49 771 l 49 660 b 49 610 49 660 49 660 b 49 603 49 610 49 607 b 104 458 49 581 54 508 b 143 429 115 447 129 438 b 104 399 129 421 115 411 b 49 257 54 349 49 279 b 49 250 49 253 49 250 l 49 21 b 69 0 49 10 58 0 b 92 21 82 0 92 10 l 92 250 b 135 369 92 293 106 339 b 232 407 158 393 190 406 l 328 407 b 507 407 328 407 329 407 l 507 21 b 528 0 507 10 517 0 b 550 21 540 0 550 10 l 550 950 b 528 972 550 963 540 972 z m 329 451 l 232 451 b 135 489 190 451 158 465 b 92 607 93 532 92 599 b 92 660 92 607 92 608 l 92 771 b 135 890 92 814 106 860 b 240 929 160 915 196 929 l 254 929 b 507 929 254 929 256 929 l 507 451 z "},"Ґ":{"ha":1157,"x_min":0,"x_max":0,"o":""},"Ђ":{"ha":610,"x_min":0,"x_max":0,"o":""},"Ѓ":{"ha":568,"x_min":0,"x_max":0,"o":""},"Є":{"ha":640,"x_min":0,"x_max":0,"o":""},"Ѕ":{"ha":640,"x_min":0,"x_max":0,"o":"m 575 201 l 575 368 b 519 519 575 424 557 481 b 383 571 486 553 440 571 l 269 571 b 263 571 269 571 269 571 b 154 608 222 571 182 581 b 111 726 113 653 111 718 l 111 754 b 156 894 113 774 118 857 b 260 933 179 919 215 933 l 383 933 b 488 894 428 933 463 919 b 531 778 529 851 531 786 b 553 754 531 765 539 754 b 575 775 565 754 575 763 b 519 925 575 788 574 868 b 383 976 486 960 440 976 l 260 976 b 124 925 203 976 157 960 b 68 757 76 876 69 782 b 68 747 68 747 68 747 l 68 721 b 124 579 72 664 89 614 b 256 526 156 546 200 528 l 272 526 b 382 526 272 526 272 526 b 488 489 421 526 460 517 b 531 371 529 446 531 379 b 531 250 531 371 531 369 b 531 201 531 250 531 250 b 488 82 531 158 517 113 b 383 44 463 57 428 44 l 260 44 b 156 82 215 44 181 57 b 113 200 114 125 113 192 b 90 224 113 211 104 222 b 68 201 79 224 68 214 b 124 51 68 190 69 108 b 260 0 157 18 203 0 l 383 0 b 519 51 440 0 486 18 b 575 201 574 108 575 190 z "},"І":{"ha":185,"x_min":0,"x_max":0,"o":""},"Ї":{"ha":1157,"x_min":0,"x_max":0,"o":""},"Ј":{"ha":568,"x_min":0,"x_max":0,"o":"m 499 950 b 476 972 499 963 489 972 b 454 950 464 972 454 963 l 454 201 b 411 82 454 158 440 113 b 307 44 386 57 351 44 l 207 44 b 103 82 163 44 128 57 b 60 200 61 125 60 192 b 39 224 60 213 51 224 b 17 203 25 224 17 214 b 72 53 17 185 18 107 b 207 0 106 18 151 0 l 307 0 b 443 51 364 0 410 18 b 499 200 497 108 499 190 b 499 950 499 200 499 201 z "},"Љ":{"ha":1157,"x_min":0,"x_max":0,"o":""},"Њ":{"ha":1157,"x_min":0,"x_max":0,"o":""},"Ћ":{"ha":1157,"x_min":0,"x_max":0,"o":""},"Ќ":{"ha":621,"x_min":0,"x_max":0,"o":""},"Ў":{"ha":642,"x_min":0,"x_max":0,"o":"m 572 244 l 572 951 b 550 974 572 964 563 974 b 529 951 539 974 529 964 l 529 451 l 263 451 b 157 490 217 451 182 464 b 114 608 115 533 114 600 b 114 746 114 608 114 610 l 114 951 b 92 974 113 964 103 974 b 69 951 79 974 69 964 l 69 751 b 71 750 71 751 71 750 b 69 746 71 749 69 747 l 69 610 b 126 460 69 556 89 499 b 263 408 160 425 206 408 l 350 408 b 529 408 350 408 351 408 l 529 201 b 485 82 529 201 529 128 b 381 44 460 57 425 44 l 342 44 b 263 44 342 44 342 44 b 157 82 218 44 182 57 b 114 200 115 125 114 192 b 93 224 114 213 106 224 b 71 203 79 224 71 214 b 71 196 71 203 71 200 b 126 53 71 174 76 103 b 263 0 160 18 206 0 l 293 0 b 381 0 293 0 293 0 b 517 53 438 0 483 18 b 572 201 571 108 572 190 b 572 244 572 201 572 203 z "},"а":{"ha":640,"x_min":0,"x_max":0,"o":"m 515 921 b 379 972 482 954 436 972 l 261 972 b 125 921 204 972 158 954 b 69 772 71 864 69 782 b 69 21 69 772 69 771 b 90 0 69 10 79 0 b 113 21 103 0 113 10 l 113 410 l 528 410 l 528 21 b 550 0 528 10 538 0 b 571 21 561 0 571 10 l 571 769 b 515 921 571 824 553 882 z m 113 453 l 113 771 b 156 890 113 814 126 860 b 261 929 181 915 217 929 l 379 929 b 483 890 424 929 460 915 b 528 772 526 847 528 781 b 528 453 528 772 528 771 z "},"б":{"ha":619,"x_min":0,"x_max":0,"o":"m 571 203 l 571 313 b 571 364 571 313 571 313 b 515 514 571 418 553 475 b 379 565 482 549 436 565 l 113 565 l 113 772 b 156 892 113 815 126 861 b 261 931 181 917 217 931 l 549 931 b 569 951 560 931 569 940 b 549 974 569 964 560 974 l 261 974 b 125 922 204 974 158 956 b 69 775 72 868 69 790 l 69 22 b 90 1 69 11 79 1 l 290 1 b 379 1 290 1 292 1 b 515 53 436 1 482 18 b 571 203 569 108 571 190 z m 483 82 b 379 44 458 57 424 44 l 113 44 l 113 522 l 364 522 b 379 522 364 522 365 522 b 483 483 424 522 458 510 b 528 365 526 440 528 374 b 528 313 528 365 528 364 l 528 201 b 483 82 528 158 514 113 z "},"в":{"ha":619,"x_min":0,"x_max":0,"o":"m 571 313 b 571 364 571 313 571 313 b 515 514 571 419 553 476 b 476 544 504 526 490 536 b 515 574 490 551 504 561 b 571 721 568 628 571 706 l 571 769 b 515 922 571 825 554 882 b 379 974 482 956 436 974 l 261 974 b 125 922 204 974 158 956 b 69 774 71 865 69 783 b 69 22 69 774 69 772 b 92 1 69 11 79 1 l 290 1 b 379 1 290 1 292 1 b 515 53 436 1 482 18 b 571 200 568 106 571 183 z m 157 892 b 261 931 182 917 217 931 l 379 931 b 485 892 424 931 460 917 b 528 774 526 849 528 782 b 528 738 528 774 528 772 l 528 724 b 485 604 528 681 514 635 b 388 565 461 581 429 567 l 292 565 b 113 565 292 565 290 565 l 113 772 b 157 892 113 774 113 846 z m 485 82 b 379 44 460 57 424 44 l 365 44 b 113 44 365 44 364 44 l 113 522 l 388 522 b 485 483 429 522 461 508 b 528 365 526 440 528 374 b 528 313 528 365 528 364 l 528 201 b 485 82 528 158 514 113 z "},"г":{"ha":568,"x_min":0,"x_max":0,"o":"m 540 974 l 281 974 b 261 974 281 974 279 974 b 125 921 204 974 158 956 b 69 774 71 865 69 783 b 69 22 69 774 69 772 b 92 0 69 10 79 0 b 113 22 103 0 113 10 l 113 772 b 157 892 113 815 126 861 b 261 929 182 917 217 929 l 340 929 b 540 929 340 929 342 929 b 561 951 551 929 561 939 b 540 974 561 964 551 974 z "},"д":{"ha":735,"x_min":0,"x_max":0,"o":"m 719 22 b 699 44 719 35 710 44 l 621 44 l 621 951 b 599 974 619 964 610 974 l 347 974 b 211 921 290 974 244 956 b 156 775 158 868 156 790 l 156 160 b 156 133 156 160 156 158 b 132 71 156 107 147 85 b 64 44 110 49 76 44 l 36 44 b 15 22 25 44 15 35 b 15 22 15 22 15 22 b 15 22 15 22 15 22 b 15 22 15 22 15 22 b 15 22 15 22 15 22 l 15 -99 b 36 -119 15 -110 25 -119 b 58 -99 49 -119 58 -110 l 58 1 b 67 1 58 1 60 1 l 676 1 l 676 -99 b 699 -119 676 -110 686 -119 b 719 -99 710 -119 719 -110 l 719 22 b 719 22 719 22 719 22 b 719 22 719 22 719 22 z m 199 133 l 199 158 b 199 772 199 158 199 158 b 242 892 199 815 213 861 b 347 929 267 917 303 929 l 576 929 l 576 44 l 167 44 b 199 133 188 67 199 97 z "},"е":{"ha":619,"x_min":0,"x_max":0,"o":"m 549 43 l 113 43 l 113 521 l 364 521 b 385 543 375 521 385 531 b 364 564 385 554 375 564 l 113 564 l 113 771 b 157 890 113 814 126 860 b 261 929 182 915 217 929 l 340 929 b 539 929 340 929 342 929 b 561 950 551 929 561 939 b 539 972 561 963 551 972 l 281 972 b 261 972 281 972 279 972 b 125 921 204 972 158 954 b 69 772 71 864 69 782 b 69 21 69 772 69 771 b 92 0 69 10 79 0 l 364 0 b 549 0 364 0 365 0 b 571 21 561 0 571 10 b 549 43 571 33 561 43 z "},"ё":{"ha":619,"x_min":0,"x_max":0,"o":"m 243 1028 b 263 1050 256 1028 263 1038 l 263 1135 b 243 1156 263 1146 256 1156 b 224 1135 231 1156 224 1146 l 224 1050 b 243 1028 224 1038 231 1028 z m 396 1028 b 414 1050 407 1028 414 1038 l 414 1135 b 396 1156 414 1146 407 1156 b 376 1135 383 1156 376 1146 l 376 1050 b 396 1028 376 1038 383 1028 z m 549 43 l 113 43 l 113 521 l 364 521 b 385 543 375 521 385 531 b 364 564 385 554 375 564 l 113 564 l 113 771 b 157 890 113 814 126 860 b 261 929 182 915 217 929 l 340 929 b 539 929 340 929 342 929 b 561 950 551 929 561 939 b 539 972 561 963 551 972 l 281 972 b 261 972 281 972 279 972 b 125 921 204 972 158 954 b 69 772 71 864 69 782 b 69 21 69 772 69 771 b 92 0 69 10 79 0 l 364 0 b 549 0 364 0 365 0 b 571 21 561 0 571 10 b 549 43 571 33 561 43 z "},"ж":{"ha":765,"x_min":0,"x_max":0,"o":"m 694 363 b 639 513 694 418 676 475 b 592 546 625 526 610 538 b 625 572 604 554 615 563 b 681 721 679 629 681 711 b 681 950 681 721 681 722 b 658 972 681 963 671 972 b 638 953 647 972 638 964 l 638 722 b 593 603 638 679 624 633 b 500 564 571 579 539 567 l 406 564 l 406 950 b 383 972 404 963 394 972 b 361 950 371 972 361 963 l 361 564 l 265 564 b 171 603 225 567 194 579 b 128 721 129 646 128 713 b 128 950 128 721 128 722 b 107 972 128 963 118 972 b 106 972 107 972 107 972 b 85 950 94 972 85 963 l 85 722 b 140 572 85 667 103 610 b 174 546 150 563 161 554 b 125 513 156 538 139 526 b 69 364 71 457 69 375 b 69 21 69 364 69 363 b 92 0 69 10 79 0 b 113 21 103 0 113 10 l 113 364 b 157 482 113 364 113 436 b 261 521 182 508 217 521 l 361 521 l 361 21 b 383 0 363 10 372 0 b 406 21 396 0 406 10 l 406 521 l 503 521 b 608 482 547 521 583 508 b 651 364 650 439 651 372 b 651 21 651 364 651 363 b 674 0 651 10 661 0 b 696 21 686 0 696 10 z "},"з":{"ha":599,"x_min":0,"x_max":0,"o":"m 550 363 b 494 513 550 417 532 474 b 454 543 482 525 469 535 b 494 572 469 550 482 560 b 550 721 549 629 550 711 b 550 768 550 721 550 722 b 494 921 550 824 532 882 b 358 972 461 954 415 972 l 257 972 b 121 921 200 972 154 954 b 65 772 68 867 65 789 b 86 749 65 758 75 749 b 108 771 97 749 108 758 b 151 890 108 781 110 847 b 257 929 176 915 213 929 l 358 929 b 463 890 403 929 438 915 b 507 771 507 844 507 772 l 507 722 b 463 603 507 679 493 633 b 367 564 440 579 407 565 b 154 564 364 564 154 564 b 133 543 143 564 133 554 b 154 521 133 531 143 521 b 367 521 154 521 364 521 b 463 482 407 519 439 507 b 507 363 507 436 507 364 l 507 200 b 463 82 507 200 508 128 b 358 43 438 56 403 43 l 240 43 b 135 81 196 43 160 56 b 92 199 93 124 92 190 b 71 222 92 211 83 222 b 49 201 57 222 49 213 b 49 194 49 201 49 199 b 104 51 49 172 54 101 b 240 0 138 17 183 0 l 358 0 b 494 51 415 0 461 17 b 550 200 549 107 550 189 b 550 363 550 200 550 201 z "},"и":{"ha":639,"x_min":0,"x_max":0,"o":"m 569 951 b 547 974 569 964 560 974 b 543 972 546 974 544 974 b 538 974 542 972 539 974 b 519 961 529 974 522 968 l 468 854 b 129 132 468 854 468 854 l 110 82 l 114 128 l 114 951 b 92 974 113 964 103 974 b 69 951 79 974 69 964 l 69 22 b 92 0 69 10 79 0 b 96 1 93 0 94 1 b 101 0 97 1 100 0 b 121 13 110 0 117 6 l 142 60 b 511 842 142 60 142 60 l 531 892 l 526 846 l 526 22 b 549 0 526 10 536 0 b 569 22 560 0 569 10 z "},"й":{"ha":639,"x_min":0,"x_max":0,"o":"m 206 1082 b 306 1036 207 1081 249 1038 b 399 1078 342 1036 374 1053 l 415 1096 b 422 1111 419 1100 422 1106 b 415 1126 422 1117 419 1122 b 400 1132 411 1131 406 1132 b 385 1126 394 1132 389 1131 l 367 1108 b 307 1079 349 1089 328 1079 b 236 1113 268 1081 238 1113 l 221 1129 b 206 1135 217 1133 211 1135 b 190 1129 200 1135 194 1133 b 183 1114 185 1125 183 1119 b 190 1099 183 1108 185 1103 z m 569 951 b 547 974 569 964 560 974 b 543 972 546 974 544 974 b 538 974 542 972 539 974 b 519 961 529 974 522 968 l 468 854 b 129 132 468 854 468 854 l 110 82 l 114 128 l 114 951 b 92 974 113 964 103 974 b 69 951 79 974 69 964 l 69 22 b 92 0 69 10 79 0 b 96 1 93 0 94 1 b 101 0 97 1 100 0 b 121 13 110 0 117 6 l 142 60 b 511 842 142 60 142 60 l 531 892 l 526 846 l 526 22 b 549 0 526 10 536 0 b 569 22 560 0 569 10 z "},"к":{"ha":621,"x_min":0,"x_max":0,"o":"m 572 222 l 572 364 b 517 514 572 418 554 475 b 468 549 503 528 486 540 b 500 574 481 556 490 564 b 557 722 556 631 557 713 b 557 749 557 722 557 724 b 556 951 557 750 557 751 b 535 974 556 964 546 974 b 513 951 522 974 513 964 l 513 772 b 513 724 513 772 513 771 b 469 604 513 681 499 635 b 375 565 446 581 415 568 l 113 565 l 113 951 b 92 974 113 964 103 974 b 69 951 79 974 69 964 l 69 22 b 92 1 69 11 79 1 b 114 22 104 1 114 11 l 114 522 l 378 522 b 485 485 425 522 460 510 b 529 364 529 439 529 365 l 529 229 b 528 222 528 225 528 224 l 528 22 b 550 1 529 11 539 1 b 572 22 563 1 572 11 z "},"л":{"ha":642,"x_min":0,"x_max":0,"o":"m 571 951 b 549 974 571 964 561 974 l 297 974 b 163 921 240 974 196 956 b 106 774 107 865 106 783 b 106 160 106 774 106 772 b 106 133 106 160 106 160 b 83 71 106 107 99 86 b 11 44 58 46 19 44 l -12 44 b -35 22 -25 44 -35 35 b -12 1 -35 11 -25 1 l 10 1 b 114 39 47 1 86 14 b 150 133 138 63 150 94 l 150 158 b 150 772 150 158 150 158 b 193 892 150 815 164 861 b 297 931 218 917 253 931 l 528 931 l 528 22 b 550 1 528 11 538 1 b 572 22 563 1 572 11 z "},"м":{"ha":763,"x_min":0,"x_max":0,"o":"m 672 972 b 650 957 661 972 653 965 l 583 743 b 382 96 583 743 583 743 l 201 674 b 113 957 201 674 201 674 b 94 972 110 965 103 972 b 69 951 81 972 69 964 l 69 22 b 92 0 71 10 81 0 b 114 22 104 0 114 10 l 114 783 l 106 853 l 122 782 l 361 15 b 381 0 361 15 365 0 b 403 15 390 0 403 6 l 642 782 l 658 853 l 650 783 l 650 22 b 672 0 650 10 660 0 b 693 22 683 0 693 10 l 693 951 b 672 972 693 965 682 972 z "},"н":{"ha":640,"x_min":0,"x_max":0,"o":"m 571 950 b 549 972 571 963 561 972 b 526 950 536 972 526 963 l 526 561 l 113 561 l 113 950 b 90 972 113 963 103 972 b 69 950 79 972 69 963 l 69 21 b 92 0 69 10 79 0 b 113 18 103 0 113 8 l 113 21 l 113 518 l 528 518 l 528 21 b 550 0 528 10 538 0 b 571 21 561 0 571 10 z "},"о":{"ha":640,"x_min":0,"x_max":0,"o":"m 571 771 b 515 921 571 826 553 883 b 379 974 482 956 436 974 l 261 974 b 125 921 204 974 158 956 b 69 774 71 865 69 783 b 69 203 69 774 69 772 b 125 53 69 149 88 92 b 261 0 158 18 204 0 l 379 0 b 515 53 436 0 482 18 b 571 199 567 106 571 182 b 571 771 571 200 571 771 z m 485 82 b 379 44 460 57 424 44 l 261 44 b 157 82 217 44 182 57 b 113 201 115 125 113 192 b 113 201 113 201 113 201 b 113 201 113 201 113 201 l 113 772 b 157 892 113 815 126 861 b 261 929 182 917 217 929 l 379 929 b 485 892 424 929 460 917 b 528 774 526 849 528 782 b 528 201 528 774 528 772 b 485 82 528 158 514 113 z "},"п":{"ha":642,"x_min":0,"x_max":0,"o":"m 571 951 b 550 974 571 964 561 974 l 94 974 b 69 951 79 974 69 964 b 69 951 69 951 69 951 b 69 951 69 951 69 951 l 69 22 b 92 1 71 11 81 1 b 114 22 104 1 114 11 l 114 929 l 528 929 l 528 22 b 550 1 528 11 538 1 b 572 22 563 1 572 11 z "},"р":{"ha":619,"x_min":0,"x_max":0,"o":"m 571 613 l 571 749 b 571 771 571 749 571 749 b 515 922 571 825 553 883 b 379 974 482 956 436 974 l 261 974 b 125 922 204 974 158 956 b 69 775 72 868 69 790 l 69 22 b 90 1 69 11 79 1 b 113 22 103 1 113 11 l 113 411 l 379 411 b 515 463 436 411 482 429 b 571 613 569 519 571 601 z m 483 493 b 379 454 458 468 424 454 l 113 454 l 113 772 b 156 892 113 815 126 861 b 261 931 181 917 217 931 l 379 931 b 483 892 424 931 458 917 b 528 772 528 846 528 774 l 528 661 b 528 613 528 661 528 661 b 483 493 528 569 514 524 z "},"с":{"ha":636,"x_min":0,"x_max":0,"o":"m 575 201 b 556 222 574 213 565 222 b 531 200 540 222 531 213 b 488 82 531 190 529 125 b 382 43 463 56 428 43 l 261 43 b 157 81 217 43 182 56 b 113 201 113 126 113 200 l 113 771 b 157 890 113 814 126 860 b 211 922 171 906 190 915 b 261 928 226 926 243 928 l 371 928 b 471 890 413 928 447 914 b 514 772 513 847 514 781 b 535 749 514 760 522 749 b 557 769 547 749 557 758 b 557 776 557 769 557 772 b 501 921 557 799 551 871 b 365 972 468 954 422 972 l 261 972 b 201 964 240 972 221 969 b 125 921 172 957 146 942 b 69 772 71 864 69 782 b 69 208 69 772 69 771 l 69 201 b 125 51 69 147 88 90 b 261 0 158 17 204 0 l 382 0 b 518 51 439 0 485 17 b 575 201 574 107 575 189 z "},"т":{"ha":610,"x_min":0,"x_max":0,"o":"m 569 974 l 40 974 b 19 953 29 974 19 964 b 40 931 19 940 29 931 l 283 931 l 283 24 b 306 1 283 11 293 1 b 326 24 317 1 326 11 l 326 931 l 569 931 b 592 953 582 931 592 940 b 569 974 592 964 582 974 z "},"у":{"ha":642,"x_min":0,"x_max":0,"o":"m 572 244 l 572 951 b 550 974 572 964 563 974 b 529 951 539 974 529 964 l 529 451 l 263 451 b 157 490 217 451 182 464 b 114 608 115 533 114 600 b 114 746 114 608 114 610 l 114 951 b 92 974 113 964 103 974 b 69 951 79 974 69 964 l 69 751 b 71 750 71 751 71 750 b 69 746 71 749 69 747 l 69 610 b 126 460 69 556 89 499 b 263 408 160 425 206 408 l 350 408 b 529 408 350 408 351 408 l 529 201 b 485 82 529 201 529 128 b 381 44 460 57 425 44 l 342 44 b 263 44 342 44 342 44 b 157 82 218 44 182 57 b 114 200 115 125 114 192 b 93 224 114 213 106 224 b 71 203 79 224 71 214 b 71 196 71 203 71 200 b 126 53 71 174 76 103 b 263 0 160 18 206 0 l 293 0 b 381 0 293 0 293 0 b 517 53 438 0 483 18 b 572 201 571 108 572 190 b 572 244 572 201 572 203 z "},"ф":{"ha":765,"x_min":0,"x_max":0,"o":"m 696 660 l 696 769 b 640 921 696 825 678 882 b 504 972 607 954 561 972 l 261 972 b 125 921 204 972 158 954 b 69 778 75 871 69 800 b 69 771 69 774 69 771 l 69 660 b 69 381 69 660 69 660 b 69 374 69 381 69 378 b 125 229 69 351 75 279 b 261 178 158 196 204 178 l 349 178 b 350 24 349 178 349 178 b 371 1 350 11 360 1 b 393 24 383 1 393 11 l 393 178 l 504 178 b 640 229 561 178 607 196 b 696 376 693 283 696 361 z m 349 221 l 261 221 b 156 260 217 221 181 235 b 113 378 114 303 113 369 b 113 660 113 378 113 379 l 113 771 b 156 890 113 814 126 860 b 261 929 181 915 217 929 l 350 929 z m 610 260 b 504 221 585 235 549 221 l 393 221 l 393 929 l 504 929 b 610 890 549 929 585 915 b 653 772 651 847 653 781 b 653 719 653 772 653 771 l 653 379 b 610 260 653 336 639 290 z "},"х":{"ha":574,"x_min":0,"x_max":0,"o":"m 543 32 l 311 535 l 499 942 b 501 951 500 944 501 949 b 489 971 501 960 496 968 b 479 974 486 972 482 974 b 460 961 471 974 464 968 l 286 586 l 114 961 b 94 974 110 968 103 974 b 85 971 92 974 88 972 b 72 951 76 968 72 960 b 75 942 72 947 74 944 l 263 535 l 31 32 b 28 22 29 29 28 25 b 40 3 28 14 33 7 b 50 0 44 1 47 0 b 69 14 58 0 67 6 l 286 483 l 504 14 b 524 0 507 6 515 0 b 532 3 526 0 529 1 b 546 22 540 7 546 14 b 543 32 546 25 544 29 z "},"ц":{"ha":656,"x_min":0,"x_max":0,"o":"m 678 6 b 576 43 640 42 586 43 b 574 950 576 43 575 43 b 551 972 574 963 564 972 b 531 950 540 972 531 963 l 531 43 l 261 43 b 157 82 217 43 182 56 b 114 200 115 125 114 192 b 114 950 114 200 114 201 b 92 972 114 963 104 972 b 69 950 79 972 69 963 l 69 201 b 125 51 69 147 88 90 b 261 0 160 17 204 0 l 553 0 l 576 0 b 649 -26 576 0 621 0 b 671 -118 664 -42 671 -92 l 671 -144 b 693 -165 671 -156 681 -165 b 714 -144 704 -165 714 -156 l 714 -118 b 678 6 714 -79 703 -18 z "},"ч":{"ha":621,"x_min":0,"x_max":0,"o":"m 551 953 b 529 975 551 965 542 975 b 507 953 517 975 507 965 l 507 453 l 240 453 b 136 492 196 453 161 467 b 93 610 94 535 93 601 b 93 747 93 610 93 611 l 93 953 b 71 975 92 965 82 975 b 49 953 58 974 49 965 l 49 611 b 106 461 49 557 67 500 b 240 410 139 428 183 410 l 508 410 l 508 24 b 529 1 508 11 518 1 b 551 24 542 1 551 11 z "},"ш":{"ha":765,"x_min":0,"x_max":0,"o":"m 696 21 l 696 950 b 674 972 694 963 685 972 b 651 950 661 971 651 963 l 651 43 l 406 43 l 406 950 b 383 972 406 963 396 972 b 361 950 371 972 361 963 l 361 43 l 261 43 b 157 82 217 43 182 56 b 114 200 115 125 114 192 b 114 950 114 200 114 201 b 92 972 114 963 104 972 b 69 950 79 972 69 963 l 69 201 b 126 51 69 147 89 89 b 261 0 160 17 206 0 l 674 0 b 696 21 686 0 696 10 b 696 21 696 21 696 21 b 696 21 696 21 696 21 z "},"щ":{"ha":782,"x_min":0,"x_max":0,"o":"m 800 6 b 699 43 761 42 707 43 b 694 950 699 43 697 43 b 674 972 694 963 685 972 b 651 950 661 971 651 963 l 651 43 l 406 43 l 406 950 b 383 972 406 963 396 972 b 361 950 371 972 361 963 l 361 43 l 263 43 b 157 82 217 43 182 56 b 114 200 115 125 114 192 b 114 950 114 200 114 201 b 92 972 114 963 104 972 b 69 950 79 972 69 963 l 69 201 b 126 51 69 147 89 89 b 263 0 160 17 206 0 l 674 0 l 697 0 b 769 -26 697 0 742 0 b 793 -117 785 -42 793 -90 l 793 -143 b 814 -164 793 -154 803 -164 b 836 -143 826 -164 836 -154 l 836 -117 b 800 6 836 -78 824 -18 z "},"ъ":{"ha":701,"x_min":0,"x_max":0,"o":"m 653 203 l 653 314 b 653 361 653 314 653 314 b 597 513 653 415 635 474 b 461 564 564 546 518 564 l 194 564 l 194 835 b 156 938 192 875 181 911 b 63 974 133 961 101 974 l -6 974 b -28 953 -18 974 -28 964 b -6 931 -28 940 -18 931 l 61 931 b 125 907 89 931 110 922 b 151 835 151 881 151 836 l 151 204 b 207 53 151 150 169 92 b 343 1 240 19 286 1 l 461 1 b 597 53 518 1 564 19 b 653 203 651 110 653 192 z m 565 83 b 461 44 540 58 506 44 l 343 44 b 239 83 299 44 264 58 b 194 201 196 126 194 193 b 194 521 194 201 194 203 l 461 521 b 565 482 506 521 540 507 b 610 364 608 439 610 372 b 610 314 610 364 610 363 l 610 203 b 565 83 610 160 596 114 z "},"ы":{"ha":749,"x_min":0,"x_max":0,"o":"m 678 950 b 657 972 678 963 668 972 b 635 950 644 972 635 963 l 635 21 b 657 0 635 10 644 0 b 679 21 669 0 679 10 z m 571 311 b 571 360 571 311 571 311 b 515 510 571 415 553 472 b 379 563 482 544 436 563 l 113 563 l 113 950 b 92 972 113 963 103 972 b 69 950 79 972 69 963 l 69 201 b 125 51 69 147 88 90 b 261 0 158 17 204 0 l 379 0 b 515 51 436 0 482 17 b 571 199 568 106 571 183 z m 485 82 b 379 43 460 56 424 43 l 261 43 b 157 82 217 43 182 56 b 113 200 114 125 113 192 b 113 518 113 200 113 201 l 379 518 b 485 481 424 518 460 506 b 528 363 526 438 528 371 b 528 225 528 363 528 361 b 528 200 528 225 528 225 b 485 82 528 157 514 113 z "},"ь":{"ha":619,"x_min":0,"x_max":0,"o":"m 571 201 l 571 311 b 571 360 571 311 571 311 b 515 510 571 415 553 472 b 379 563 482 544 436 563 l 113 563 l 113 950 b 92 972 113 963 103 972 b 69 950 79 972 69 963 l 69 201 b 125 51 69 147 88 90 b 261 0 158 17 204 0 l 379 0 b 515 51 436 0 482 17 b 571 201 568 106 571 183 z m 485 82 b 379 43 460 56 424 43 l 261 43 b 157 82 217 43 182 56 b 113 201 113 128 113 200 l 113 518 l 379 518 b 485 481 424 518 460 506 b 528 363 526 438 528 371 b 528 311 528 363 528 361 l 528 200 b 485 82 528 157 514 113 z "},"э":{"ha":586,"x_min":0,"x_max":0,"o":"m 517 201 l 517 311 b 517 542 517 311 517 311 l 517 769 b 517 776 517 769 517 772 b 461 921 517 799 511 871 b 325 972 428 954 382 972 l 224 972 b 89 919 167 972 122 954 b 32 771 33 864 32 782 b 54 749 32 760 42 749 b 76 771 67 749 76 760 b 119 890 76 781 78 847 b 224 929 144 915 179 929 l 325 929 b 431 890 369 929 406 915 b 474 772 472 847 474 781 b 474 564 474 772 474 771 l 122 564 b 100 543 110 564 100 554 b 122 521 100 531 110 521 l 474 521 l 474 294 b 474 200 474 294 474 294 b 431 82 474 157 460 113 b 325 43 406 56 371 43 l 207 43 b 103 82 163 43 128 56 b 58 200 58 128 58 200 b 38 222 58 214 49 222 b 15 201 25 221 15 214 b 71 51 15 189 17 107 b 207 0 104 17 150 0 l 325 0 b 461 51 382 0 428 17 b 517 194 511 101 517 172 b 517 201 517 199 517 201 z "},"ю":{"ha":822,"x_min":0,"x_max":0,"o":"m 753 204 l 753 735 b 751 739 751 736 751 738 l 751 772 b 696 924 751 828 733 885 b 565 975 664 956 619 974 b 560 975 565 975 565 975 l 472 975 b 468 974 471 975 469 975 b 349 924 419 971 379 954 b 293 775 294 867 293 785 b 293 564 293 775 293 774 l 113 564 l 113 953 b 90 974 113 964 103 974 b 69 953 79 974 69 964 l 69 24 b 92 1 69 11 79 1 b 113 24 103 1 113 11 l 113 521 l 293 521 l 293 203 b 349 54 293 194 294 111 b 468 3 379 24 419 6 l 578 3 b 696 54 626 6 667 24 b 751 200 747 107 751 183 b 753 204 753 201 753 203 z m 665 83 b 560 46 640 58 604 46 l 485 46 b 381 83 440 46 406 58 b 338 203 339 126 338 193 l 338 314 b 338 774 338 314 338 314 b 381 893 338 817 351 863 b 485 932 406 918 440 932 l 560 932 b 665 893 604 932 640 918 b 708 775 707 850 708 783 b 708 754 708 775 708 774 l 708 203 b 665 83 708 160 694 114 z "},"я":{"ha":619,"x_min":0,"x_max":0,"o":"m 528 972 b 522 971 526 972 525 972 b 517 972 521 972 519 972 l 240 972 b 104 921 183 972 138 954 b 49 778 54 871 49 800 b 49 771 49 774 49 771 l 49 660 b 49 610 49 660 49 660 b 49 603 49 610 49 607 b 104 458 49 581 54 508 b 143 429 115 447 129 438 b 104 399 129 421 115 411 b 49 257 54 349 49 279 b 49 250 49 253 49 250 l 49 21 b 69 0 49 10 58 0 b 92 21 82 0 92 10 l 92 250 b 135 369 92 293 106 339 b 232 407 158 393 190 406 l 328 407 b 507 407 328 407 329 407 l 507 21 b 528 0 507 10 517 0 b 550 21 540 0 550 10 l 550 950 b 528 972 550 963 540 972 z m 329 451 l 232 451 b 135 489 190 451 158 465 b 92 607 93 532 92 599 b 92 660 92 607 92 608 l 92 771 b 135 890 92 814 106 860 b 240 929 160 915 196 929 l 254 929 b 507 929 254 929 256 929 l 507 451 z "},"ґ":{"ha":1157,"x_min":0,"x_max":0,"o":""},"ђ":{"ha":640,"x_min":0,"x_max":0,"o":""},"ѓ":{"ha":568,"x_min":0,"x_max":0,"o":""},"є":{"ha":1157,"x_min":0,"x_max":0,"o":""},"ѕ":{"ha":640,"x_min":0,"x_max":0,"o":"m 575 201 l 575 368 b 519 519 575 424 557 481 b 383 571 486 553 440 571 l 269 571 b 263 571 269 571 269 571 b 154 608 222 571 182 581 b 111 726 113 653 111 718 l 111 754 b 156 894 113 774 118 857 b 260 933 179 919 215 933 l 383 933 b 488 894 428 933 463 919 b 531 778 529 851 531 786 b 553 754 531 765 539 754 b 575 775 565 754 575 763 b 519 925 575 788 574 868 b 383 976 486 960 440 976 l 260 976 b 124 925 203 976 157 960 b 68 757 76 876 69 782 b 68 747 68 747 68 747 l 68 721 b 124 579 72 664 89 614 b 256 526 156 546 200 528 l 272 526 b 382 526 272 526 272 526 b 488 489 421 526 460 517 b 531 371 529 446 531 379 b 531 250 531 371 531 369 b 531 201 531 250 531 250 b 488 82 531 158 517 113 b 383 44 463 57 428 44 l 260 44 b 156 82 215 44 181 57 b 113 200 114 125 113 192 b 90 224 113 211 104 222 b 68 201 79 224 68 214 b 124 51 68 190 69 108 b 260 0 157 18 203 0 l 383 0 b 519 51 440 0 486 18 b 575 201 574 108 575 190 z "},"і":{"ha":185,"x_min":0,"x_max":0,"o":"m 115 960 b 93 982 115 972 106 982 b 72 960 82 982 72 972 b 69 471 71 931 69 697 b 72 22 69 244 71 25 b 93 0 72 10 82 0 b 115 22 106 0 115 10 z "},"ї":{"ha":1157,"x_min":0,"x_max":0,"o":""},"ј":{"ha":568,"x_min":0,"x_max":0,"o":"m 499 950 b 476 972 499 963 489 972 b 454 950 464 972 454 963 l 454 201 b 411 82 454 158 440 113 b 307 44 386 57 351 44 l 207 44 b 103 82 163 44 128 57 b 60 200 61 125 60 192 b 39 224 60 213 51 224 b 17 203 25 224 17 214 b 72 53 17 185 18 107 b 207 0 106 18 151 0 l 307 0 b 443 51 364 0 410 18 b 499 200 497 108 499 190 b 499 950 499 200 499 201 z "},"љ":{"ha":1157,"x_min":0,"x_max":0,"o":""},"њ":{"ha":1157,"x_min":0,"x_max":0,"o":""},"ћ":{"ha":640,"x_min":0,"x_max":0,"o":""},"ќ":{"ha":621,"x_min":0,"x_max":0,"o":""},"ў":{"ha":642,"x_min":0,"x_max":0,"o":"m 572 244 l 572 951 b 550 974 572 964 563 974 b 529 951 539 974 529 964 l 529 451 l 263 451 b 157 490 217 451 182 464 b 114 608 115 533 114 600 b 114 746 114 608 114 610 l 114 951 b 92 974 113 964 103 974 b 69 951 79 974 69 964 l 69 751 b 71 750 71 751 71 750 b 69 746 71 749 69 747 l 69 610 b 126 460 69 556 89 499 b 263 408 160 425 206 408 l 350 408 b 529 408 350 408 351 408 l 529 201 b 485 82 529 201 529 128 b 381 44 460 57 425 44 l 342 44 b 263 44 342 44 342 44 b 157 82 218 44 182 57 b 114 200 115 125 114 192 b 93 224 114 213 106 224 b 71 203 79 224 71 214 b 71 196 71 203 71 200 b 126 53 71 174 76 103 b 263 0 160 18 206 0 l 293 0 b 381 0 293 0 293 0 b 517 53 438 0 483 18 b 572 201 571 108 572 190 b 572 244 572 201 572 203 z "},"Џ":{"ha":1157,"x_min":0,"x_max":0,"o":""},"џ":{"ha":1157,"x_min":0,"x_max":0,"o":""},"№":{"ha":951,"x_min":0,"x_max":0,"o":"m 69 22 b 90 0 69 10 79 0 b 113 22 103 0 113 10 l 113 846 l 108 892 l 128 842 b 497 60 497 60 497 60 l 518 13 b 538 0 522 6 529 0 b 543 1 539 0 542 1 b 547 0 544 1 546 0 b 569 22 560 0 569 10 l 569 951 b 547 974 569 964 560 974 b 525 951 536 974 526 964 l 525 128 l 529 82 l 510 132 b 171 854 171 854 171 854 l 119 961 b 101 974 117 968 110 974 b 96 972 100 974 97 972 b 92 974 94 974 93 974 b 69 951 79 974 69 964 z m 860 43 l 629 43 b 608 22 618 43 608 33 b 629 0 608 8 618 0 l 860 0 b 882 22 872 0 882 8 b 860 43 882 33 872 43 z m 633 107 b 696 82 649 90 671 82 l 794 82 b 856 107 819 82 842 90 b 882 174 881 131 882 165 b 882 382 882 174 882 174 b 882 394 882 382 882 382 b 856 464 882 400 882 438 b 794 488 842 479 819 488 l 696 488 b 633 464 671 488 649 479 b 608 397 608 438 608 400 l 608 174 b 633 107 610 147 617 124 z m 650 397 b 665 435 650 397 650 419 b 696 446 672 440 682 446 l 794 446 b 825 435 807 446 818 440 b 838 397 838 419 838 397 l 838 389 b 838 217 838 389 838 386 b 838 174 838 217 838 217 b 825 136 838 174 838 150 b 794 126 818 129 807 126 l 696 126 b 665 136 682 126 672 129 b 650 174 650 150 650 174 z "},"&":{"ha":649,"x_min":0,"x_max":0,"o":"m 647 571 l 575 571 l 575 644 b 554 665 575 656 565 665 b 531 644 540 665 531 656 l 531 571 l 263 571 b 156 610 221 571 182 582 b 113 731 113 656 113 729 l 113 776 b 156 900 113 822 126 868 b 263 939 182 926 217 939 l 381 939 b 488 900 426 939 463 926 b 531 781 529 857 531 789 b 553 756 531 769 539 758 b 575 779 567 756 575 768 b 519 931 575 790 574 874 b 381 983 485 965 440 983 l 293 983 b 263 981 293 983 292 983 b 125 929 206 981 160 965 b 68 781 69 874 68 790 b 68 743 68 781 68 779 b 68 731 68 743 68 743 b 125 579 68 675 88 618 b 165 549 136 567 150 556 b 125 518 150 542 136 532 b 68 368 69 463 68 378 b 68 231 68 368 68 367 b 68 206 68 231 68 231 b 125 53 68 150 86 92 b 263 0 160 18 206 0 b 381 1 351 0 353 1 b 519 54 440 1 485 18 b 575 203 574 110 575 192 b 575 526 575 203 575 204 l 647 526 b 668 549 658 526 668 536 b 647 571 668 561 658 571 z m 531 204 b 488 83 531 161 517 114 b 381 46 463 58 426 46 b 263 44 293 46 292 44 b 156 83 218 44 182 57 b 113 204 113 129 113 203 l 113 368 b 156 488 113 368 113 442 b 258 526 181 514 215 526 b 346 526 258 526 261 526 b 531 526 346 526 346 526 z "},"^":{"ha":368,"x_min":0,"x_max":0,"o":"m 118 1208 b 56 1146 56 1146 56 1146 l -10 1081 b -17 1064 -14 1076 -15 1072 b -10 1049 -17 1058 -14 1053 b 6 1042 -6 1044 0 1042 b 21 1049 11 1042 17 1044 l 190 1218 b 240 1167 240 1167 240 1167 l 303 1106 b 317 1089 317 1089 317 1089 l 358 1049 b 375 1043 363 1046 367 1043 b 390 1049 381 1043 386 1046 b 396 1064 394 1053 396 1058 b 390 1081 396 1069 394 1075 l 206 1264 b 192 1271 201 1268 197 1269 l 186 1271 b 174 1264 182 1269 178 1268 b 132 1224 132 1224 132 1224 z "},"~":{"ha":639,"x_min":0,"x_max":0,"o":"m 453 399 b 604 472 504 399 556 424 b 611 488 608 476 611 482 b 604 503 611 493 608 499 b 589 508 600 507 594 508 b 574 503 583 508 578 507 b 453 443 533 463 493 443 b 353 489 418 443 383 458 l 315 526 b 192 582 278 564 236 582 b 35 506 139 582 85 556 b 28 490 31 501 28 496 b 35 475 28 485 31 479 b 50 468 39 471 44 468 b 65 475 56 468 61 471 b 192 539 107 517 151 539 b 285 496 225 539 256 525 l 322 458 b 453 399 363 419 407 399 z "},"*":{"ha":364,"x_min":0,"x_max":0,"o":"m 299 872 b 211 872 299 872 299 872 l 254 949 b 257 957 256 951 257 954 b 249 971 257 963 254 968 b 240 972 246 972 243 972 b 225 965 235 972 229 969 l 182 889 l 138 965 b 124 972 135 969 129 972 b 115 971 121 972 118 972 b 107 956 110 968 107 961 b 108 949 107 953 107 951 l 153 872 l 65 872 b 49 856 56 872 49 864 b 65 839 49 846 56 839 b 153 839 65 839 65 839 l 110 763 b 107 753 108 760 107 756 b 115 740 107 747 110 743 b 124 738 118 739 121 738 b 138 746 129 738 135 740 l 182 822 l 226 746 b 240 738 229 740 235 738 b 249 740 243 738 246 739 b 257 753 254 743 257 747 b 254 763 257 756 256 760 l 211 839 l 299 839 b 315 856 308 839 315 846 b 299 872 315 864 308 872 z "},"@":{"ha":636,"x_min":0,"x_max":0,"o":"m 550 44 l 263 44 b 157 82 218 44 182 57 b 114 201 115 126 114 192 b 114 313 114 201 114 201 l 114 774 b 157 892 114 817 128 861 b 263 929 182 917 218 929 l 381 929 b 485 892 425 929 460 917 b 528 779 521 854 528 799 b 529 618 528 779 528 779 l 372 618 b 236 568 315 618 269 601 b 181 421 185 515 181 440 l 181 313 b 236 163 181 258 199 201 b 372 110 269 128 315 110 l 549 110 b 571 131 563 110 571 118 l 571 771 b 517 921 571 826 554 883 b 381 974 483 956 436 974 l 263 974 b 126 921 204 974 160 956 b 69 772 71 865 69 783 b 69 201 69 772 69 771 b 126 53 69 192 71 110 b 263 0 160 18 204 0 l 550 0 b 571 22 561 0 571 10 b 550 44 571 35 561 44 z m 267 192 b 225 311 226 233 225 297 l 225 419 b 267 536 225 429 226 494 b 372 576 293 563 326 576 l 529 576 l 529 154 l 372 154 b 267 192 326 154 293 165 z "},"b":{"ha":619,"x_min":0,"x_max":0,"o":"m 571 313 b 571 364 571 313 571 313 b 515 514 571 419 553 476 b 476 544 504 526 490 536 b 515 574 490 551 504 561 b 571 721 568 628 571 706 l 571 769 b 515 922 571 825 554 882 b 379 974 482 956 436 974 l 261 974 b 125 922 204 974 158 956 b 69 774 71 865 69 783 b 69 22 69 774 69 772 b 92 1 69 11 79 1 l 290 1 b 379 1 290 1 292 1 b 515 53 436 1 482 18 b 571 200 568 106 571 183 z m 157 892 b 261 931 182 917 217 931 l 379 931 b 485 892 424 931 460 917 b 528 774 526 849 528 782 b 528 738 528 774 528 772 l 528 724 b 485 604 528 681 514 635 b 388 565 461 581 429 567 l 292 565 b 113 565 292 565 290 565 l 113 772 b 157 892 113 774 113 846 z m 485 82 b 379 44 460 57 424 44 l 365 44 b 113 44 365 44 364 44 l 113 522 l 388 522 b 485 483 429 522 461 508 b 528 365 526 440 528 374 b 528 313 528 365 528 364 l 528 201 b 485 82 528 158 514 113 z "},"\\":{"ha":539,"x_min":0,"x_max":0,"o":"m 447 0 b 457 3 451 0 454 1 b 469 22 467 8 469 13 b 468 31 469 25 469 28 l 111 958 b 92 974 108 968 100 974 b 82 972 89 974 85 972 b 69 950 72 968 69 960 b 71 943 69 947 71 946 l 428 14 b 447 0 431 6 439 0 z "},"|":{"ha":225,"x_min":0,"x_max":0,"o":"m 129 1121 b 111 1142 129 1132 125 1142 b 93 1121 100 1142 93 1132 l 93 -144 b 111 -168 93 -158 100 -168 b 129 -144 125 -168 129 -158 z "},"{":{"ha":265,"x_min":0,"x_max":0,"o":"m 325 -121 b 219 -83 279 -121 244 -108 b 176 36 178 -40 176 28 b 176 303 176 36 176 38 b 169 319 175 313 174 317 l 0 489 l 51 540 b 114 603 51 540 51 540 l 129 617 b 169 658 129 617 129 617 b 176 669 174 661 175 665 l 176 942 b 219 1061 176 985 190 1031 b 278 1094 235 1076 254 1088 b 324 1100 292 1097 307 1100 l 331 1100 b 346 1121 339 1103 346 1111 b 325 1143 346 1133 336 1143 b 265 1136 303 1143 283 1140 b 188 1092 235 1128 208 1113 b 132 943 133 1035 132 953 b 132 683 132 943 132 942 l -46 504 b -51 490 -50 501 -51 496 l -51 485 b -46 474 -51 481 -49 476 l -6 432 b 10 418 -6 432 -6 432 l 72 356 b 132 296 72 356 72 356 l 132 38 b 189 -112 132 -17 151 -75 b 325 -164 222 -147 268 -164 b 346 -143 336 -164 346 -154 b 325 -121 346 -131 336 -121 z "},"}":{"ha":265,"x_min":0,"x_max":0,"o":"m -60 -121 b -81 -143 -71 -121 -81 -131 b -60 -164 -81 -154 -71 -164 b 76 -112 -3 -164 43 -147 b 133 38 114 -75 133 -17 l 133 296 b 193 356 193 356 193 356 l 256 418 b 271 432 271 432 271 432 l 311 474 b 317 485 314 476 317 481 l 317 490 b 311 504 317 496 315 501 l 133 683 b 133 943 133 942 133 943 b 78 1092 133 953 132 1035 b 0 1136 57 1113 31 1128 b -60 1143 -18 1140 -37 1143 b -81 1121 -71 1143 -81 1133 b -65 1100 -81 1111 -74 1103 l -58 1100 b -12 1094 -42 1100 -26 1097 b 46 1061 11 1088 31 1076 b 89 942 75 1031 89 985 l 89 669 b 96 658 90 665 92 661 b 136 617 136 617 136 617 l 151 603 b 214 540 214 540 214 540 l 265 489 l 96 319 b 89 303 92 317 90 313 b 89 36 89 38 89 36 b 46 -83 89 28 88 -40 b -60 -121 21 -108 -14 -121 z "},"[":{"ha":183,"x_min":0,"x_max":0,"o":"m 69 -146 b 93 -164 71 -156 79 -164 l 292 -164 b 311 -142 301 -164 311 -154 b 292 -119 311 -129 301 -119 l 114 -119 l 114 1100 l 292 1100 b 311 1122 301 1100 311 1110 b 292 1143 311 1133 301 1143 b 93 1143 93 1143 93 1143 l 88 1143 b 71 1129 79 1143 74 1138 b 71 1129 71 1129 71 1129 b 71 1129 71 1129 71 1129 b 69 1122 69 1128 69 1124 z "},"]":{"ha":183,"x_min":0,"x_max":0,"o":"m 164 1122 b 163 1129 164 1124 164 1128 b 163 1129 163 1129 163 1129 b 163 1129 163 1129 163 1129 b 146 1143 160 1138 154 1143 l 140 1143 b -58 1143 140 1143 140 1143 b -78 1122 -68 1143 -78 1133 b -58 1100 -78 1110 -68 1100 l 119 1100 l 119 -119 l -58 -119 b -78 -142 -68 -119 -78 -129 b -58 -164 -78 -154 -68 -164 l 140 -164 b 164 -146 154 -164 163 -156 z "},"¦":{"ha":1157,"x_min":0,"x_max":0,"o":""},"•":{"ha":388,"x_min":0,"x_max":0,"o":"m 193 386 b 297 489 250 386 297 432 b 193 592 297 546 250 592 b 90 489 136 592 90 546 b 193 386 90 432 136 386 z "},"c":{"ha":636,"x_min":0,"x_max":0,"o":"m 575 201 b 556 222 574 213 565 222 b 531 200 540 222 531 213 b 488 82 531 190 529 125 b 382 43 463 56 428 43 l 261 43 b 157 81 217 43 182 56 b 113 201 113 126 113 200 l 113 771 b 157 890 113 814 126 860 b 211 922 171 906 190 915 b 261 928 226 926 243 928 l 371 928 b 471 890 413 928 447 914 b 514 772 513 847 514 781 b 535 749 514 760 522 749 b 557 769 547 749 557 758 b 557 776 557 769 557 772 b 501 921 557 799 551 871 b 365 972 468 954 422 972 l 261 972 b 201 964 240 972 221 969 b 125 921 172 957 146 942 b 69 772 71 864 69 782 b 69 208 69 772 69 771 l 69 201 b 125 51 69 147 88 90 b 261 0 158 17 204 0 l 382 0 b 518 51 439 0 485 17 b 575 201 574 107 575 189 z "},":":{"ha":176,"x_min":0,"x_max":0,"o":"m 89 72 b 53 36 69 72 53 56 b 89 0 53 17 69 0 b 125 36 108 0 125 17 b 89 72 125 57 108 72 z m 97 469 b 61 433 78 469 61 453 b 97 397 61 414 78 397 b 133 433 117 397 133 414 b 97 469 133 454 117 469 z "},",":{"ha":188,"x_min":0,"x_max":0,"o":"m 104 69 b 83 54 94 69 86 64 l 43 -72 b 42 -78 43 -74 42 -76 b 58 -99 42 -87 49 -96 b 64 -100 60 -100 63 -100 b 85 -85 74 -100 82 -94 l 125 42 l 125 47 b 110 69 125 57 119 65 z "},"©":{"ha":450,"x_min":0,"x_max":0,"o":"m 283 760 b 267 743 274 758 267 753 b 258 721 267 739 265 728 b 240 714 254 717 249 714 l 219 714 b 210 714 219 714 219 714 b 192 721 201 714 196 717 b 183 743 185 728 183 739 l 183 771 b 183 843 183 771 183 771 l 183 853 b 183 861 183 853 183 857 b 186 869 185 861 186 868 b 190 875 188 869 190 875 l 200 881 b 210 882 203 882 206 882 l 229 882 b 236 882 229 882 229 882 b 254 875 244 882 250 879 b 263 853 261 869 263 857 b 278 836 263 844 269 836 b 296 853 289 836 296 844 b 278 899 296 856 296 881 b 236 915 271 906 258 915 l 210 915 b 189 913 201 915 194 914 b 167 899 178 908 171 903 b 150 853 150 881 150 856 l 150 744 b 167 697 150 726 156 710 b 210 681 175 690 188 681 l 232 681 b 240 681 232 681 232 681 b 282 697 263 681 275 690 b 300 743 300 715 300 740 b 283 760 300 753 292 760 z m 225 974 b 49 799 128 974 49 894 b 225 622 49 701 128 622 b 401 799 322 622 401 701 b 225 974 401 894 322 974 z m 225 656 b 82 799 146 656 82 719 b 225 940 82 876 146 940 b 368 799 303 940 368 876 b 225 656 368 719 303 656 z "},"¤":{"ha":361,"x_min":0,"x_max":0,"o":"m 271 422 b 292 489 285 440 292 464 b 271 553 292 513 285 535 l 314 594 b 318 607 317 597 318 603 b 314 618 318 611 317 615 b 301 624 310 622 306 624 b 290 619 297 624 293 622 l 247 578 b 181 600 229 592 206 600 b 117 578 157 600 135 592 l 75 621 b 63 625 71 624 67 625 b 51 621 58 625 54 624 b 46 608 47 617 46 613 b 50 597 46 604 47 600 l 92 554 b 69 489 78 536 69 513 b 92 424 69 464 78 442 l 49 382 b 44 369 46 378 44 374 b 49 358 44 365 46 361 b 61 353 51 354 57 353 b 72 357 65 353 69 354 l 115 399 b 181 376 133 385 156 376 b 246 399 206 376 228 385 l 288 356 b 300 351 292 353 296 351 b 311 356 304 351 308 353 b 317 368 315 360 317 364 b 313 379 317 372 315 376 z m 103 489 b 181 567 103 531 139 567 b 260 489 224 567 260 531 b 181 410 260 446 224 410 b 103 489 139 410 103 446 z "},"d":{"ha":636,"x_min":0,"x_max":0,"o":"m 578 204 b 578 771 578 204 578 204 b 522 922 578 826 560 883 b 386 974 489 956 443 974 b 94 974 386 974 96 974 b 72 951 82 974 72 964 l 72 22 b 94 1 72 11 82 1 l 367 1 b 386 1 367 1 367 1 b 522 53 443 1 489 18 b 578 204 576 110 578 192 z m 490 83 b 386 44 465 57 431 44 l 307 44 b 115 44 307 44 307 44 l 115 931 l 386 931 b 490 892 431 931 465 917 b 533 778 529 853 533 796 l 533 207 b 535 201 535 206 535 203 b 490 83 535 201 536 129 z "},"†":{"ha":417,"x_min":0,"x_max":0,"o":"m 226 1121 b 208 1142 226 1132 222 1142 b 190 1121 197 1142 190 1132 l 190 -144 b 208 -168 190 -158 197 -168 b 226 -144 222 -168 226 -158 z m 107 510 b 85 489 94 510 85 500 b 107 465 85 475 94 465 l 308 465 b 332 489 322 465 332 475 b 308 510 332 500 322 510 z "},"‡":{"ha":417,"x_min":0,"x_max":0,"o":"m 226 1121 b 208 1142 226 1132 222 1142 b 190 1121 197 1142 190 1132 l 190 -144 b 208 -168 190 -158 197 -168 b 226 -144 222 -168 226 -158 z m -21 633 b -42 610 -32 633 -42 624 b -21 589 -42 599 -32 589 l 439 589 b 460 610 450 589 460 599 b 439 633 460 624 450 633 z m -21 393 b -42 371 -32 393 -42 383 b -21 350 -42 360 -32 350 l 439 350 b 460 371 450 350 460 360 b 439 393 460 383 450 393 z "},"°":{"ha":388,"x_min":0,"x_max":0,"o":"m 193 771 b 297 874 250 771 297 817 b 193 976 297 931 250 976 b 90 874 136 976 90 931 b 193 771 90 817 136 771 z m 193 935 b 254 874 228 935 254 907 b 193 811 254 839 228 811 b 131 874 158 811 131 839 b 193 935 131 907 158 935 z "},"$":{"ha":640,"x_min":0,"x_max":0,"o":"m 575 203 l 575 369 b 575 369 575 369 575 369 l 575 369 b 518 519 575 374 578 460 b 383 571 486 553 440 571 b 383 571 383 571 383 571 b 382 571 383 571 382 571 b 260 571 382 571 261 571 b 156 610 215 571 179 585 b 113 728 111 656 113 728 l 113 731 b 113 731 113 731 113 731 l 113 756 b 156 896 113 775 119 858 b 260 933 179 921 215 933 l 383 933 b 488 896 428 933 463 921 b 532 776 532 850 532 778 b 553 754 532 765 540 756 l 553 754 b 575 776 564 754 574 764 b 518 926 575 779 578 865 b 383 976 486 961 440 976 l 344 976 b 344 976 344 976 344 976 l 344 1078 b 321 1100 344 1090 335 1100 l 321 1100 b 300 1078 310 1100 300 1090 l 300 976 b 300 976 300 976 300 976 l 260 976 b 124 926 203 976 157 961 b 69 757 76 878 69 783 b 69 757 69 757 69 757 l 69 757 b 69 721 69 751 69 721 b 69 721 69 721 69 721 b 124 579 69 699 75 628 b 254 526 157 547 201 529 b 382 526 256 526 382 526 b 383 526 382 526 382 526 b 383 526 383 526 383 526 b 488 489 428 526 463 514 b 532 371 532 444 532 371 l 532 201 b 488 82 532 201 532 128 b 383 44 463 58 428 44 l 260 44 b 156 82 215 44 182 58 b 113 201 111 128 113 201 b 92 224 113 214 103 224 b 69 203 79 225 69 214 b 124 53 69 200 67 111 b 260 0 157 18 203 0 l 300 0 b 300 0 300 0 300 0 l 300 -100 b 321 -122 300 -112 310 -122 l 321 -122 b 344 -100 335 -122 344 -112 l 344 0 b 344 0 344 0 344 0 l 383 0 b 518 53 440 0 486 18 b 575 203 578 111 575 200 z "},"e":{"ha":619,"x_min":0,"x_max":0,"o":"m 549 43 l 113 43 l 113 521 l 364 521 b 385 543 375 521 385 531 b 364 564 385 554 375 564 l 113 564 l 113 771 b 157 890 113 814 126 860 b 261 929 182 915 217 929 l 340 929 b 539 929 340 929 342 929 b 561 950 551 929 561 939 b 539 972 561 963 551 972 l 281 972 b 261 972 281 972 279 972 b 125 921 204 972 158 954 b 69 772 71 864 69 782 b 69 21 69 772 69 771 b 92 0 69 10 79 0 l 364 0 b 549 0 364 0 365 0 b 571 21 561 0 571 10 b 549 43 571 33 561 43 z "},"…":{"ha":567,"x_min":0,"x_max":0,"o":"m 86 72 b 50 36 67 72 50 56 b 86 0 50 17 67 0 b 122 36 106 0 122 17 b 86 72 122 57 106 72 z m 275 72 b 239 36 256 72 239 56 b 275 0 239 17 256 0 b 311 36 294 0 311 17 b 275 72 311 57 294 72 z m 464 72 b 428 36 444 72 428 56 b 464 0 428 17 444 0 b 500 36 483 0 500 17 b 464 72 500 57 483 72 z "},"—":{"ha":764,"x_min":0,"x_max":0,"o":"m 92 513 b 69 489 79 513 69 503 b 92 468 69 478 79 468 l 671 468 b 694 489 685 468 694 478 b 671 513 694 503 685 513 z "},"–":{"ha":642,"x_min":0,"x_max":0,"o":"m 92 514 b 69 490 79 514 69 504 b 92 469 69 479 79 469 l 549 469 b 572 490 563 469 572 479 b 549 514 572 504 563 514 z "},"=":{"ha":640,"x_min":0,"x_max":0,"o":"m 90 633 b 69 610 79 633 69 624 b 90 589 69 599 79 589 l 550 589 b 571 610 561 589 571 599 b 550 633 571 624 561 633 z m 90 393 b 69 371 79 393 69 383 b 90 350 69 360 79 350 l 550 350 b 571 371 561 350 571 360 b 550 393 571 383 561 393 z "},"!":{"ha":183,"x_min":0,"x_max":0,"o":"m 92 72 b 56 36 72 72 56 56 b 92 0 56 17 72 0 b 128 36 111 0 128 17 b 92 72 128 57 111 72 z m 92 218 b 114 239 104 218 114 228 l 114 951 b 92 974 114 964 104 974 b 69 951 79 974 69 964 l 69 239 b 92 218 71 228 81 218 z "},"f":{"ha":572,"x_min":0,"x_max":0,"o":"m 539 974 l 261 974 b 125 922 204 974 158 956 b 69 775 72 868 69 790 b 68 24 69 774 69 772 b 90 1 68 11 78 1 b 113 24 103 1 113 11 l 113 522 l 364 522 b 385 544 375 522 385 532 b 364 565 385 556 375 565 l 113 565 l 113 772 b 156 892 113 815 126 861 b 261 931 181 917 217 931 l 539 931 b 561 951 551 931 561 940 b 539 974 561 964 551 974 z "},"g":{"ha":636,"x_min":0,"x_max":0,"o":"m 574 204 b 574 364 574 204 574 204 b 568 381 574 371 572 376 b 551 386 564 383 558 386 l 353 386 b 331 364 340 386 331 376 b 353 343 331 353 340 343 l 531 343 l 531 200 b 488 85 531 157 517 114 b 382 46 463 58 426 46 l 261 46 b 157 85 217 46 182 58 b 113 203 114 128 113 194 b 113 774 113 203 113 204 b 157 893 113 817 126 863 b 211 925 171 908 189 919 b 261 932 226 929 243 932 l 365 932 b 469 893 410 932 446 918 b 514 775 513 850 514 783 b 535 751 514 764 522 753 b 557 774 549 751 557 763 b 501 924 557 790 556 868 b 365 975 468 957 422 975 l 261 975 b 201 968 240 975 219 972 b 125 924 171 960 146 944 b 69 776 72 869 69 792 l 69 204 b 125 54 69 150 88 93 b 261 3 158 19 204 3 l 382 3 b 518 54 439 3 485 19 b 574 204 571 108 574 186 z "},"`":{"ha":186,"x_min":0,"x_max":0,"o":"m 78 958 b 57 974 75 968 65 974 b 50 972 54 974 53 974 b 35 953 49 972 35 965 b 36 946 35 950 35 949 l 107 754 b 128 739 110 744 118 739 b 136 740 131 739 133 739 b 150 760 138 740 150 747 b 149 767 150 763 150 764 z "},">":{"ha":368,"x_min":0,"x_max":0,"o":"m 251 432 b 292 474 251 432 251 432 l 299 485 b 299 489 299 488 299 489 b 292 506 299 497 294 500 l 107 689 b 92 696 104 693 97 696 b 76 689 86 696 81 693 b 69 674 72 685 69 679 b 76 658 72 667 74 661 l 118 617 b 132 603 118 617 118 617 l 194 540 b 246 490 194 540 194 540 l 76 321 b 71 306 72 317 71 311 b 76 290 71 300 72 294 b 92 283 81 286 86 283 b 107 290 100 285 104 286 l 172 356 b 236 418 172 356 172 356 z "},"«":{"ha":511,"x_min":0,"x_max":0,"o":"m 276 418 b 339 356 339 356 339 356 l 404 290 b 421 283 408 288 413 283 b 436 290 426 283 432 286 b 442 306 440 294 442 300 b 436 321 442 311 440 317 l 267 489 b 318 542 318 542 318 542 l 381 603 b 394 618 394 618 394 618 l 436 658 b 442 672 439 663 442 667 b 443 676 442 674 443 675 b 436 690 443 681 439 686 b 419 696 432 693 425 696 b 404 690 414 696 408 693 l 221 506 b 214 490 217 503 214 492 b 214 486 214 490 214 489 b 221 475 215 483 217 478 b 261 432 261 432 261 432 z m 69 490 b 69 486 69 490 69 489 b 75 475 69 483 72 478 b 115 432 115 432 115 432 l 131 418 b 193 356 193 356 193 356 l 260 290 b 274 283 263 288 267 283 b 290 290 281 283 286 286 b 297 313 296 296 297 304 b 296 326 297 317 297 322 l 121 489 b 172 542 172 542 172 542 l 233 603 b 250 618 250 618 250 618 l 290 658 b 296 676 294 663 296 667 b 290 690 296 681 294 686 b 275 696 285 693 281 696 b 260 690 269 696 264 693 l 75 506 b 69 490 71 503 69 497 z "},"»":{"ha":513,"x_min":0,"x_max":0,"o":"m 251 432 b 292 475 251 432 251 432 b 299 486 296 478 297 483 b 299 490 299 489 299 490 b 292 506 299 492 296 503 l 108 690 b 93 696 104 693 99 696 b 76 690 88 696 81 693 b 69 676 74 686 69 681 b 71 672 69 675 71 674 b 76 658 71 667 74 663 l 118 618 b 132 603 118 618 118 618 l 194 542 b 246 489 194 542 194 542 l 76 321 b 71 306 72 317 71 311 b 76 290 71 300 72 294 b 92 283 81 286 86 283 b 108 290 100 283 104 288 l 174 356 b 236 418 174 356 174 356 z m 443 490 b 438 506 443 497 442 503 l 253 690 b 238 696 249 693 243 696 b 222 690 232 696 228 693 b 217 676 218 686 217 681 b 222 658 217 667 218 663 l 263 618 b 279 603 263 618 263 618 l 340 542 b 392 489 340 542 340 542 l 217 326 b 215 313 215 322 215 317 b 222 290 215 304 217 296 b 239 283 226 286 232 283 b 253 290 246 283 250 288 l 319 356 b 382 418 319 356 319 356 l 397 432 b 438 475 397 432 397 432 b 443 486 440 478 443 483 b 443 490 443 489 443 490 z "},"‹":{"ha":368,"x_min":0,"x_max":0,"o":"m 132 418 b 196 356 196 356 196 356 l 261 290 b 276 283 264 286 268 285 b 292 290 282 283 288 286 b 297 306 296 294 297 300 b 292 321 297 311 296 317 l 122 490 b 174 540 174 540 174 540 l 236 603 b 250 617 250 617 250 617 l 292 658 b 299 674 294 661 296 667 b 292 689 299 679 296 685 b 276 696 288 693 282 696 b 261 689 271 696 264 693 l 76 506 b 69 489 74 500 69 497 b 69 485 69 489 69 488 l 76 474 b 117 432 117 432 117 432 z "},"›":{"ha":368,"x_min":0,"x_max":0,"o":"m 251 432 b 292 474 251 432 251 432 l 299 485 b 299 489 299 488 299 489 b 292 506 299 497 294 500 l 107 689 b 92 696 104 693 97 696 b 76 689 86 696 81 693 b 69 674 72 685 69 679 b 76 658 72 667 74 661 l 118 617 b 132 603 118 617 118 617 l 194 540 b 246 490 194 540 194 540 l 76 321 b 71 306 72 317 71 311 b 76 290 71 300 72 294 b 92 283 81 286 86 283 b 107 290 100 285 104 286 l 172 356 b 236 418 172 356 172 356 z "},"h":{"ha":640,"x_min":0,"x_max":0,"o":"m 571 950 b 549 972 571 963 561 972 b 526 950 536 972 526 963 l 526 561 l 113 561 l 113 950 b 90 972 113 963 103 972 b 69 950 79 972 69 963 l 69 21 b 92 0 69 10 79 0 b 113 18 103 0 113 8 l 113 21 l 113 518 l 528 518 l 528 21 b 550 0 528 10 538 0 b 571 21 561 0 571 10 z "},"-":{"ha":386,"x_min":0,"x_max":0,"o":"m 92 510 b 69 489 79 510 69 500 b 92 465 69 475 79 465 l 293 465 b 317 489 307 465 317 475 b 293 510 317 500 307 510 z "},"i":{"ha":185,"x_min":0,"x_max":0,"o":"m 115 960 b 93 982 115 972 106 982 b 72 960 82 982 72 972 b 69 471 71 931 69 697 b 72 22 69 244 71 25 b 93 0 72 10 82 0 b 115 22 106 0 115 10 z "},"j":{"ha":568,"x_min":0,"x_max":0,"o":"m 499 950 b 476 972 499 963 489 972 b 454 950 464 972 454 963 l 454 201 b 411 82 454 158 440 113 b 307 44 386 57 351 44 l 207 44 b 103 82 163 44 128 57 b 60 200 61 125 60 192 b 39 224 60 213 51 224 b 17 203 25 224 17 214 b 72 53 17 185 18 107 b 207 0 106 18 151 0 l 307 0 b 443 51 364 0 410 18 b 499 200 497 108 499 190 b 499 950 499 200 499 201 z "},"k":{"ha":621,"x_min":0,"x_max":0,"o":"m 572 222 l 572 364 b 517 514 572 418 554 475 b 468 549 503 528 486 540 b 500 574 481 556 490 564 b 557 722 556 631 557 713 b 557 749 557 722 557 724 b 556 951 557 750 557 751 b 535 974 556 964 546 974 b 513 951 522 974 513 964 l 513 772 b 513 724 513 772 513 771 b 469 604 513 681 499 635 b 375 565 446 581 415 568 l 113 565 l 113 951 b 92 974 113 964 103 974 b 69 951 79 974 69 964 l 69 22 b 92 1 69 11 79 1 b 114 22 104 1 114 11 l 114 522 l 378 522 b 485 485 425 522 460 510 b 529 364 529 439 529 365 l 529 229 b 528 222 528 225 528 224 l 528 22 b 550 1 529 11 539 1 b 572 22 563 1 572 11 z "},"l":{"ha":572,"x_min":0,"x_max":0,"o":"m 539 0 b 561 22 551 0 561 10 b 539 43 561 33 551 43 l 261 43 b 156 82 217 43 181 57 b 113 201 126 113 113 158 l 113 950 b 90 972 113 963 103 972 b 69 950 79 972 69 963 l 69 199 b 125 51 69 183 72 106 b 261 0 158 18 204 0 l 539 0 z "},"<":{"ha":368,"x_min":0,"x_max":0,"o":"m 132 418 b 196 356 196 356 196 356 l 261 290 b 276 283 264 286 268 285 b 292 290 282 283 288 286 b 297 306 296 294 297 300 b 292 321 297 311 296 317 l 122 490 b 174 540 174 540 174 540 l 236 603 b 250 617 250 617 250 617 l 292 658 b 299 674 294 661 296 667 b 292 689 299 679 296 685 b 276 696 288 693 282 696 b 261 689 271 696 264 693 l 76 506 b 69 489 74 500 69 497 b 69 485 69 489 69 488 l 76 474 b 117 432 117 432 117 432 z "},"¬":{"ha":763,"x_min":0,"x_max":0,"o":"m 693 590 b 672 613 693 603 683 613 l 92 613 b 69 590 79 613 69 603 b 92 568 69 578 79 568 l 650 568 l 650 388 b 672 365 650 375 660 365 b 693 388 685 367 693 376 z "},"m":{"ha":763,"x_min":0,"x_max":0,"o":"m 672 972 b 650 957 661 972 653 965 l 583 743 b 382 96 583 743 583 743 l 201 674 b 113 957 201 674 201 674 b 94 972 110 965 103 972 b 69 951 81 972 69 964 l 69 22 b 92 0 71 10 81 0 b 114 22 104 0 114 10 l 114 783 l 106 853 l 122 782 l 361 15 b 381 0 361 15 365 0 b 403 15 390 0 403 6 l 642 782 l 658 853 l 650 783 l 650 22 b 672 0 650 10 660 0 b 693 22 683 0 693 10 l 693 951 b 672 972 693 965 682 972 z "},"µ":{"ha":1157,"x_min":0,"x_max":0,"o":""},"n":{"ha":639,"x_min":0,"x_max":0,"o":"m 69 22 b 90 0 69 10 79 0 b 113 22 103 0 113 10 l 113 846 l 108 892 l 128 842 b 497 60 497 60 497 60 l 518 13 b 538 0 522 6 529 0 b 543 1 539 0 542 1 b 547 0 544 1 546 0 b 569 22 560 0 569 10 l 569 951 b 547 974 569 964 560 974 b 525 951 536 974 526 964 l 525 128 l 529 82 l 510 132 b 171 854 171 854 171 854 l 119 961 b 101 974 117 968 110 974 b 96 972 100 974 97 972 b 92 974 94 974 93 974 b 69 951 79 974 69 964 z "},"#":{"ha":714,"x_min":0,"x_max":0,"o":"m 651 971 b 644 972 649 972 647 972 b 624 958 636 972 626 967 l 497 628 l 325 628 l 446 943 b 447 950 447 946 447 947 b 433 971 447 958 442 968 b 426 972 431 972 429 972 b 406 958 418 972 408 967 l 279 628 l 169 628 b 147 606 157 628 147 618 b 169 583 147 593 157 583 l 263 583 l 188 388 l 86 388 b 64 367 74 388 64 378 b 86 344 64 354 74 344 l 171 344 l 50 29 b 49 22 49 26 49 25 b 63 1 49 14 54 4 b 69 0 65 0 67 0 b 90 14 79 0 88 4 l 217 344 l 389 344 l 268 29 b 267 22 267 26 267 25 b 281 1 267 14 272 4 b 288 0 283 0 285 0 b 308 14 297 0 306 4 l 435 344 l 544 344 b 567 367 556 344 567 354 b 544 388 565 379 556 388 l 451 388 l 526 583 l 628 583 b 650 606 639 583 650 593 b 628 628 649 618 639 628 l 543 628 l 664 943 b 665 950 665 946 665 947 b 651 971 665 958 660 968 z m 406 388 l 233 388 l 308 583 l 481 583 z "},"o":{"ha":640,"x_min":0,"x_max":0,"o":"m 571 771 b 515 921 571 826 553 883 b 379 974 482 956 436 974 l 261 974 b 125 921 204 974 158 956 b 69 774 71 865 69 783 b 69 203 69 774 69 772 b 125 53 69 149 88 92 b 261 0 158 18 204 0 l 379 0 b 515 53 436 0 482 18 b 571 199 567 106 571 182 b 571 771 571 200 571 771 z m 485 82 b 379 44 460 57 424 44 l 261 44 b 157 82 217 44 182 57 b 113 201 115 125 113 192 b 113 201 113 201 113 201 b 113 201 113 201 113 201 l 113 772 b 157 892 113 815 126 861 b 261 929 182 917 217 929 l 379 929 b 485 892 424 929 460 917 b 528 774 526 849 528 782 b 528 201 528 774 528 772 b 485 82 528 158 514 113 z "},"p":{"ha":619,"x_min":0,"x_max":0,"o":"m 571 613 l 571 749 b 571 771 571 749 571 749 b 515 922 571 825 553 883 b 379 974 482 956 436 974 l 261 974 b 125 922 204 974 158 956 b 69 775 72 868 69 790 l 69 22 b 90 1 69 11 79 1 b 113 22 103 1 113 11 l 113 411 l 379 411 b 515 463 436 411 482 429 b 571 613 569 519 571 601 z m 483 493 b 379 454 458 468 424 454 l 113 454 l 113 772 b 156 892 113 815 126 861 b 261 931 181 917 217 931 l 379 931 b 483 892 424 931 458 917 b 528 772 528 846 528 774 l 528 661 b 528 613 528 661 528 661 b 483 493 528 569 514 524 z "},"¶":{"ha":572,"x_min":0,"x_max":0,"o":"m 503 949 b 492 968 501 957 499 965 b 481 971 488 971 485 971 l 254 971 b 118 919 197 971 151 954 b 63 771 64 863 63 781 b 63 746 63 771 63 769 b 63 651 63 746 63 746 b 118 503 63 597 81 540 b 254 450 151 468 197 450 l 324 450 l 324 21 b 346 -1 324 8 333 -1 b 353 0 349 -1 351 -1 b 369 21 363 3 369 11 l 369 928 l 458 928 l 458 21 b 481 -1 458 8 468 -1 b 503 21 493 0 503 8 z "},"(":{"ha":225,"x_min":0,"x_max":0,"o":"m 283 -121 b 179 -82 239 -121 203 -108 b 135 38 135 -36 135 38 l 135 943 b 179 1063 135 943 135 1017 b 238 1094 194 1079 214 1089 b 283 1100 251 1099 267 1100 b 289 1101 286 1100 288 1101 b 306 1122 299 1104 306 1113 b 283 1144 306 1133 296 1144 b 224 1138 261 1144 242 1142 b 147 1092 193 1129 169 1113 b 90 942 110 1054 90 996 l 90 46 b 92 38 90 44 92 42 b 147 -111 92 28 93 -56 b 283 -162 181 -147 228 -162 b 306 -142 296 -162 306 -153 b 283 -121 306 -131 296 -121 z "},")":{"ha":225,"x_min":0,"x_max":0,"o":"m -58 -121 b -81 -142 -71 -121 -81 -131 b -58 -162 -81 -153 -71 -162 b 78 -111 -3 -162 44 -147 b 133 38 132 -56 133 28 b 135 46 133 42 135 44 l 135 942 b 78 1092 135 996 115 1054 b 1 1138 56 1113 32 1129 b -58 1144 -17 1142 -36 1144 b -81 1122 -71 1144 -81 1133 b -64 1101 -81 1113 -74 1104 b -58 1100 -62 1101 -61 1100 b -12 1094 -42 1100 -26 1099 b 46 1063 11 1089 31 1079 b 90 943 90 1017 90 943 l 90 38 b 46 -82 90 38 90 -36 b -58 -121 22 -108 -14 -121 z "},"%":{"ha":608,"x_min":0,"x_max":0,"o":"m 126 0 b 117 3 122 0 119 1 b 104 22 107 8 104 13 b 106 31 104 25 104 28 l 463 958 b 482 974 465 968 474 974 b 492 972 485 974 489 972 b 504 950 501 968 504 960 b 503 943 504 947 503 946 l 146 14 b 126 0 143 6 135 0 z m 25 596 b 88 571 40 579 63 571 l 186 571 b 247 596 211 571 233 579 b 274 663 272 619 274 654 b 274 871 274 663 274 663 b 274 883 274 871 274 871 b 247 953 274 889 274 926 b 186 976 233 968 211 976 l 88 976 b 25 953 63 976 40 968 b 0 886 0 926 0 889 l 0 663 b 25 596 1 636 8 613 z m 42 886 b 57 924 42 886 42 908 b 88 935 64 929 74 935 l 186 935 b 217 924 199 935 210 929 b 229 886 229 908 229 886 l 229 878 b 229 706 229 878 229 875 b 229 663 229 706 229 706 b 217 625 229 663 229 639 b 186 615 210 618 199 615 l 88 615 b 57 625 74 615 64 618 b 42 663 42 639 42 663 z m 360 25 b 422 0 375 8 397 0 l 521 0 b 582 25 546 0 568 8 b 608 92 607 49 608 83 b 608 300 608 92 608 92 b 608 313 608 300 608 300 b 582 382 608 318 608 356 b 521 406 568 397 546 406 l 422 406 b 360 382 397 406 375 397 b 335 315 335 356 335 318 l 335 92 b 360 25 336 65 343 42 z m 376 315 b 392 353 376 315 376 338 b 422 364 399 358 408 364 l 521 364 b 551 353 533 364 544 358 b 564 315 564 338 564 315 l 564 307 b 564 135 564 307 564 304 b 564 92 564 135 564 135 b 551 54 564 92 564 68 b 521 44 544 47 533 44 l 422 44 b 392 54 408 44 399 47 b 376 92 376 68 376 92 z "},".":{"ha":189,"x_min":0,"x_max":0,"o":"m 86 72 b 50 36 67 72 50 56 b 86 0 50 17 67 0 b 122 36 106 0 122 17 l 122 36 b 86 72 122 57 106 72 z "},"·":{"ha":642,"x_min":0,"x_max":0,"o":"m 351 489 l 499 635 b 504 650 503 639 504 644 b 499 665 504 656 503 661 b 483 672 494 669 489 672 b 468 665 478 672 472 669 l 321 519 l 175 665 b 160 672 171 669 165 672 b 143 665 154 672 147 669 b 136 650 139 660 136 656 b 143 635 136 644 139 639 l 290 489 l 143 342 b 136 326 139 338 136 332 b 143 311 136 321 139 315 b 161 306 149 307 156 306 b 175 311 167 306 171 307 l 321 457 l 468 311 b 483 304 472 307 478 304 b 499 311 489 304 494 307 b 504 326 503 315 504 321 b 499 342 504 332 503 338 z "},"‰":{"ha":947,"x_min":0,"x_max":0,"o":"m 126 0 b 117 3 122 0 119 1 b 104 22 107 8 104 13 b 106 31 104 25 104 28 l 463 958 b 482 974 465 968 474 974 b 492 972 485 974 489 972 b 504 950 501 968 504 960 b 503 943 504 947 503 946 l 146 14 b 126 0 143 6 135 0 z m 25 596 b 88 571 40 579 63 571 l 186 571 b 247 596 211 571 233 579 b 274 663 272 619 274 654 b 274 871 274 663 274 663 b 274 883 274 871 274 871 b 247 953 274 889 274 926 b 186 976 233 968 211 976 l 88 976 b 25 953 63 976 40 968 b 0 886 0 926 0 889 l 0 663 b 25 596 1 636 8 613 z m 42 886 b 57 924 42 886 42 908 b 88 935 64 929 74 935 l 186 935 b 217 924 199 935 210 929 b 229 886 229 908 229 886 l 229 878 b 229 706 229 878 229 875 b 229 663 229 706 229 706 b 217 625 229 663 229 639 b 186 615 210 618 199 615 l 88 615 b 57 625 74 615 64 618 b 42 663 42 639 42 663 z m 360 25 b 422 0 375 8 397 0 l 521 0 b 582 25 546 0 568 8 b 608 92 607 49 608 83 b 608 300 608 92 608 92 b 608 313 608 300 608 300 b 582 382 608 318 608 356 b 521 406 568 397 546 406 l 422 406 b 360 382 397 406 375 397 b 335 315 335 356 335 318 l 335 92 b 360 25 336 65 343 42 z m 376 315 b 392 353 376 315 376 338 b 422 364 399 358 408 364 l 521 364 b 551 353 533 364 544 358 b 564 315 564 338 564 315 l 564 307 b 564 135 564 307 564 304 b 564 92 564 135 564 135 b 551 54 564 92 564 68 b 521 44 544 47 533 44 l 422 44 b 392 54 408 44 399 47 b 376 92 376 68 376 92 z m 697 25 b 760 0 713 8 735 0 l 858 0 b 919 25 883 0 906 8 b 946 92 944 49 946 83 b 946 300 946 92 946 92 b 946 313 946 300 946 300 b 919 382 946 318 946 356 b 858 406 906 397 883 406 l 760 406 b 697 382 735 406 713 397 b 672 315 672 356 672 318 l 672 92 b 697 25 674 65 681 42 z m 714 315 b 729 353 714 315 714 338 b 760 364 736 358 746 364 l 858 364 b 889 353 871 364 882 358 b 901 315 901 338 901 315 l 901 307 b 901 135 901 307 901 304 b 901 92 901 135 901 135 b 889 54 901 92 901 68 b 858 44 882 47 871 44 l 760 44 b 729 54 746 44 736 47 b 714 92 714 68 714 92 z "},"+":{"ha":640,"x_min":0,"x_max":0,"o":"m 549 514 l 342 514 l 342 721 b 321 742 342 732 332 742 b 297 721 307 742 297 732 l 297 514 l 90 514 b 69 490 79 514 69 504 b 90 469 69 479 79 469 l 297 469 l 297 263 b 321 240 297 250 307 240 b 342 263 332 240 342 250 l 342 469 l 549 469 b 571 490 561 469 571 479 b 549 514 569 504 561 514 z "},"±":{"ha":640,"x_min":0,"x_max":0,"o":"m 550 564 l 343 564 l 343 771 b 319 794 343 783 333 794 b 299 771 308 794 299 783 l 299 564 l 92 564 b 69 543 79 564 69 554 b 92 519 69 529 79 519 l 299 519 l 299 313 b 319 292 299 301 308 292 b 343 313 333 292 343 301 l 343 519 l 550 519 b 571 543 561 519 571 529 b 550 564 569 554 561 564 z m 90 228 b 67 206 76 228 67 218 b 90 185 67 194 76 185 l 549 185 b 569 206 560 185 569 194 b 549 228 569 218 560 228 z "},"q":{"ha":642,"x_min":0,"x_max":0,"o":"m 592 38 l 543 88 b 572 197 569 133 572 185 b 572 771 572 199 572 771 b 515 921 572 825 553 882 b 381 972 482 954 436 972 l 261 972 b 126 919 204 972 160 954 b 69 772 71 864 69 782 b 69 201 69 772 69 771 b 125 51 69 147 88 90 b 261 0 160 17 204 0 l 381 0 b 515 51 436 0 482 17 b 561 7 517 51 517 51 b 561 7 561 7 561 7 b 574 0 563 6 569 1 b 592 7 579 0 588 1 b 597 22 596 11 597 17 b 592 38 597 28 596 33 z m 381 43 l 261 43 b 157 82 217 43 182 56 b 114 200 115 124 114 190 b 114 771 114 200 114 200 b 157 890 114 814 128 860 b 261 929 182 915 217 929 l 381 929 b 485 890 425 929 460 915 b 528 772 526 847 528 781 b 528 200 528 772 528 771 b 511 119 528 172 522 144 l 407 221 b 392 228 403 226 397 228 b 376 222 386 228 381 226 b 371 207 374 218 371 213 b 376 192 371 199 374 194 l 417 149 b 433 135 417 149 417 149 l 486 82 b 381 43 457 54 419 43 z "},"?":{"ha":608,"x_min":0,"x_max":0,"o":"m 279 74 b 243 38 258 74 243 57 b 279 1 243 18 258 1 b 315 38 299 1 315 18 b 279 74 315 58 299 74 z m 558 671 l 558 771 b 503 922 558 826 540 883 b 367 974 469 956 424 974 l 268 974 b 132 922 211 974 165 956 b 76 779 82 872 76 801 b 76 772 76 775 76 772 l 76 661 b 97 640 76 650 86 640 b 119 661 110 640 119 650 l 119 772 b 163 892 119 815 133 861 b 268 931 188 917 224 931 l 367 931 b 472 892 411 931 447 917 b 515 774 514 849 515 782 b 515 672 515 774 515 772 b 472 551 515 628 503 582 b 313 403 417 494 358 447 b 257 242 260 350 257 257 b 279 218 257 226 268 218 b 301 239 292 218 301 228 b 344 372 301 286 311 339 b 503 521 382 410 429 447 b 558 671 556 574 558 651 z "},"\"":{"ha":294,"x_min":0,"x_max":0,"o":"m 113 950 b 92 972 113 963 103 972 b 69 950 79 972 69 963 l 69 747 b 92 726 69 736 79 726 b 113 747 103 726 113 736 z m 225 950 b 204 972 225 963 215 972 b 182 950 192 972 182 963 l 182 747 b 204 726 182 736 192 726 b 225 747 215 726 225 736 z "},"„":{"ha":269,"x_min":0,"x_max":0,"o":"m 104 69 b 83 54 94 69 86 64 l 43 -72 b 42 -78 43 -74 42 -76 b 58 -99 42 -87 49 -96 b 64 -100 60 -100 63 -100 b 85 -85 74 -100 82 -94 l 125 42 l 125 47 b 110 69 125 57 119 65 z m 206 69 b 185 54 196 69 188 64 l 144 -72 b 143 -78 144 -74 143 -76 b 160 -99 143 -87 150 -96 b 165 -100 161 -100 164 -100 b 186 -85 175 -100 183 -94 l 226 42 l 226 47 b 211 69 226 57 221 65 z "},"“":{"ha":304,"x_min":0,"x_max":0,"o":"m 233 843 l 200 954 b 179 969 197 964 189 969 l 174 969 b 157 947 164 967 157 957 b 158 942 157 946 158 944 l 192 831 b 213 815 194 821 203 815 b 218 817 214 815 217 815 b 233 838 228 819 233 828 z m 106 954 b 85 969 103 964 94 969 l 79 969 b 63 947 69 967 63 957 b 64 942 63 946 64 944 l 97 831 b 118 815 100 821 108 815 b 124 817 119 815 122 815 b 139 838 133 819 139 828 l 139 843 z "},"”":{"ha":279,"x_min":0,"x_max":0,"o":"m 106 971 b 83 956 96 971 88 965 l 50 844 l 50 839 b 65 818 50 829 56 821 b 71 817 68 817 69 817 b 92 832 81 817 89 822 l 125 943 b 126 950 126 946 126 947 b 111 971 126 960 119 968 z m 199 971 b 178 956 189 971 181 965 l 144 844 l 144 839 b 160 818 144 829 150 821 b 165 817 161 817 164 817 b 186 832 175 817 183 822 l 219 943 b 221 949 219 946 221 947 b 204 971 221 958 214 968 z "},"‘":{"ha":1157,"x_min":0,"x_max":0,"o":""},"’":{"ha":1157,"x_min":0,"x_max":0,"o":""},"‚":{"ha":188,"x_min":0,"x_max":0,"o":"m 104 69 b 83 54 94 69 86 64 l 43 -72 b 42 -78 43 -74 42 -76 b 58 -99 42 -87 49 -96 b 64 -100 60 -100 63 -100 b 85 -85 74 -100 82 -94 l 125 42 l 125 47 b 110 69 125 57 119 65 z "},"'":{"ha":182,"x_min":0,"x_max":0,"o":"m 113 950 b 92 972 113 963 103 972 b 69 950 79 972 69 963 l 69 747 b 92 726 69 736 79 726 b 113 747 103 726 113 736 z "},"r":{"ha":619,"x_min":0,"x_max":0,"o":"m 71 972 b 49 950 58 972 49 963 l 49 21 b 71 0 49 10 58 0 b 92 21 82 0 92 10 l 92 407 b 271 407 269 407 271 407 l 367 407 b 464 369 408 406 440 393 b 507 250 493 339 507 293 l 507 21 b 529 0 507 10 517 0 b 550 21 540 0 550 10 l 550 250 b 550 257 550 250 550 253 b 494 399 550 279 544 349 b 456 429 483 411 469 421 b 494 458 469 438 483 447 b 550 603 544 508 550 581 b 550 610 550 607 550 610 b 550 660 550 660 550 660 l 550 771 b 550 778 550 771 550 774 b 494 921 550 800 544 871 b 358 972 461 954 415 972 l 82 972 b 76 971 79 972 78 972 b 71 972 74 972 72 972 z m 92 451 l 92 929 b 344 929 343 929 344 929 l 358 929 b 464 890 403 929 439 915 b 507 771 493 860 507 814 l 507 660 b 507 607 507 608 507 607 b 464 489 507 599 506 532 b 367 451 440 465 408 451 l 269 451 z "},"®":{"ha":450,"x_min":0,"x_max":0,"o":"m 300 853 b 283 899 300 856 300 881 b 240 915 275 906 263 915 l 218 915 b 169 915 218 915 218 915 b 150 899 158 915 150 907 l 150 697 b 167 681 150 689 158 681 b 183 697 176 681 183 689 l 183 772 l 218 772 b 240 772 218 772 218 772 b 258 767 249 772 254 771 b 267 744 265 760 267 749 l 267 697 b 283 681 267 689 274 681 b 300 697 293 681 300 689 l 300 743 b 283 789 300 746 300 771 b 300 835 300 807 300 832 l 300 846 b 300 853 300 846 300 846 z m 183 882 l 236 882 b 258 875 247 882 253 881 b 267 853 265 869 267 857 l 267 836 b 258 813 267 826 264 818 b 240 806 254 808 249 806 b 218 806 240 806 240 806 b 183 806 218 806 218 806 z m 225 974 b 49 799 128 974 49 894 b 225 622 49 701 128 622 b 401 799 322 622 401 701 b 225 974 401 894 322 974 z m 225 656 b 82 799 147 656 82 719 b 225 940 82 876 147 940 b 368 799 304 940 368 876 b 225 656 368 719 304 656 z "},"s":{"ha":640,"x_min":0,"x_max":0,"o":"m 575 201 l 575 368 b 519 519 575 424 557 481 b 383 571 486 553 440 571 l 269 571 b 263 571 269 571 269 571 b 154 608 222 571 182 581 b 111 726 113 653 111 718 l 111 754 b 156 894 113 774 118 857 b 260 933 179 919 215 933 l 383 933 b 488 894 428 933 463 919 b 531 778 529 851 531 786 b 553 754 531 765 539 754 b 575 775 565 754 575 763 b 519 925 575 788 574 868 b 383 976 486 960 440 976 l 260 976 b 124 925 203 976 157 960 b 68 757 76 876 69 782 b 68 747 68 747 68 747 l 68 721 b 124 579 72 664 89 614 b 256 526 156 546 200 528 l 272 526 b 382 526 272 526 272 526 b 488 489 421 526 460 517 b 531 371 529 446 531 379 b 531 250 531 371 531 369 b 531 201 531 250 531 250 b 488 82 531 158 517 113 b 383 44 463 57 428 44 l 260 44 b 156 82 215 44 181 57 b 113 200 114 125 113 192 b 90 224 113 211 104 222 b 68 201 79 224 68 214 b 124 51 68 190 69 108 b 260 0 157 18 203 0 l 383 0 b 519 51 440 0 486 18 b 575 201 574 108 575 190 z "},"§":{"ha":535,"x_min":0,"x_max":0,"o":"m 486 454 b 431 603 486 508 468 565 b 297 653 399 636 353 653 b 226 653 297 653 228 653 b 93 792 135 658 93 728 b 236 932 93 860 138 932 l 390 932 b 413 954 403 932 413 942 b 390 976 413 967 403 976 l 236 976 b 96 918 179 976 131 956 b 50 803 68 888 51 846 b 49 799 49 801 49 800 l 49 521 b 103 372 49 467 67 411 b 238 322 136 339 182 322 l 297 322 b 442 183 397 322 442 250 b 297 43 442 115 397 43 l 144 43 b 122 21 132 43 122 33 b 144 0 122 10 132 0 l 297 0 b 486 153 403 0 478 75 b 486 454 486 158 486 454 z m 297 367 l 231 367 b 135 403 190 367 158 379 b 93 519 94 446 93 511 b 93 671 93 519 93 521 b 236 608 124 635 172 608 l 304 608 b 400 572 344 608 376 596 b 442 457 440 531 442 465 b 442 304 442 457 442 456 b 297 367 411 342 363 367 z "},";":{"ha":193,"x_min":0,"x_max":0,"o":"m 97 469 b 61 433 78 469 61 453 b 97 397 61 414 78 397 b 133 433 117 397 133 414 b 97 469 133 454 117 469 z m 104 69 b 83 54 94 69 86 64 l 43 -72 b 42 -78 43 -74 42 -76 b 58 -99 42 -87 49 -96 b 64 -100 60 -100 63 -100 b 85 -85 74 -100 82 -94 l 125 42 l 125 47 b 110 69 125 57 119 65 z "},"/":{"ha":539,"x_min":0,"x_max":0,"o":"m 92 0 b 111 14 100 0 108 6 l 468 943 b 469 950 468 946 469 947 b 457 972 469 960 467 968 b 447 974 454 972 450 974 b 428 958 439 974 431 968 l 71 31 b 69 22 69 28 69 25 b 82 3 69 13 72 8 b 92 0 85 1 88 0 z "}," ":{"ha":417,"x_min":0,"x_max":0,"o":""},"t":{"ha":610,"x_min":0,"x_max":0,"o":"m 569 974 l 40 974 b 19 953 29 974 19 964 b 40 931 19 940 29 931 l 283 931 l 283 24 b 306 1 283 11 293 1 b 326 24 317 1 326 11 l 326 931 l 569 931 b 592 953 582 931 592 940 b 569 974 592 964 582 974 z "},"™":{"ha":465,"x_min":0,"x_max":0,"o":"m 168 972 l 21 972 b 4 956 11 972 4 964 b 21 939 4 946 11 939 l 78 939 l 78 754 b 94 738 78 746 85 738 b 111 754 104 738 111 746 l 111 939 l 168 939 b 185 956 178 939 185 946 b 168 972 185 964 178 972 z m 417 956 b 403 972 417 972 403 972 b 397 972 403 972 397 972 b 383 961 390 972 386 968 l 318 799 l 254 961 b 244 971 251 965 249 969 b 239 972 243 971 240 972 b 221 956 229 972 221 964 l 221 754 b 238 738 221 746 229 738 b 254 754 247 738 254 747 l 254 869 l 300 753 b 318 738 304 739 311 738 b 335 749 325 738 333 743 l 383 872 l 383 754 b 400 738 383 746 392 738 b 417 754 410 738 417 747 z "},"u":{"ha":640,"x_min":0,"x_max":0,"o":"m 571 960 b 549 982 571 972 561 982 b 526 960 536 982 526 972 l 526 201 b 526 196 526 201 526 199 b 483 82 526 178 521 121 b 379 44 458 57 424 44 l 261 44 b 156 82 217 44 181 57 b 113 200 114 125 113 190 b 113 960 113 200 113 200 b 92 982 113 972 103 982 b 69 960 79 982 69 972 l 69 203 b 69 196 69 203 69 200 b 125 51 69 174 75 101 b 261 0 158 18 204 0 l 379 0 b 515 51 436 0 482 18 b 571 199 567 106 571 182 b 571 960 571 199 571 960 z "},"_":{"ha":458,"x_min":0,"x_max":0,"o":"m 1 47 b -21 24 -11 47 -21 38 b 1 3 -21 13 -11 3 l 458 3 b 482 24 472 3 482 13 b 458 47 482 38 472 47 z "}," ":{"ha":0,"x_min":0,"x_max":0,"o":""},"­":{"ha":386,"x_min":0,"x_max":0,"o":"m 92 510 b 69 489 79 510 69 500 b 92 465 69 475 79 465 l 293 465 b 317 489 307 465 317 475 b 293 510 317 500 307 510 z "},"v":{"ha":564,"x_min":0,"x_max":0,"o":"m 551 972 b 525 957 538 972 529 968 l 282 101 l 39 957 b 17 972 35 967 26 972 l 11 972 b -4 949 0 968 -4 958 l 261 17 b 282 0 263 7 272 0 b 303 17 292 0 300 7 l 568 944 l 568 950 b 551 972 568 961 563 969 z "},"w":{"ha":788,"x_min":0,"x_max":0,"o":"m 789 964 b 763 947 775 964 765 958 l 563 115 l 363 947 b 342 964 360 958 351 964 l 336 964 b 319 943 325 960 319 953 l 319 938 l 372 714 l 229 115 l 29 947 b 8 964 26 958 18 964 l 3 964 b -14 943 -8 960 -14 953 l -14 938 l 207 18 b 224 1 210 8 215 3 b 224 1 224 1 224 1 b 224 1 224 1 224 1 b 224 1 224 1 224 1 b 250 18 222 -1 244 -1 l 396 621 l 540 18 b 557 1 543 8 549 3 b 557 1 557 1 557 1 b 557 1 557 1 557 1 b 557 1 557 1 557 1 b 560 0 558 1 558 0 b 560 0 560 0 560 0 b 561 0 560 0 561 0 b 563 0 561 0 561 0 b 563 0 563 0 563 0 b 564 0 564 0 564 0 b 565 0 565 0 565 0 b 567 1 565 0 567 1 b 567 1 567 1 567 1 b 567 1 567 1 567 1 b 567 1 567 1 567 1 b 583 18 575 3 582 8 l 806 938 b 789 964 806 953 799 961 z "},"x":{"ha":574,"x_min":0,"x_max":0,"o":"m 543 32 l 311 535 l 499 942 b 501 951 500 944 501 949 b 489 971 501 960 496 968 b 479 974 486 972 482 974 b 460 961 471 974 464 968 l 286 586 l 114 961 b 94 974 110 968 103 974 b 85 971 92 974 88 972 b 72 951 76 968 72 960 b 75 942 72 947 74 944 l 263 535 l 31 32 b 28 22 29 29 28 25 b 40 3 28 14 33 7 b 50 0 44 1 47 0 b 69 14 58 0 67 6 l 286 483 l 504 14 b 524 0 507 6 515 0 b 532 3 526 0 529 1 b 546 22 540 7 546 14 b 543 32 546 25 544 29 z "},"y":{"ha":517,"x_min":0,"x_max":0,"o":"m 504 972 b 494 974 501 974 499 974 b 475 961 486 974 479 969 l 258 492 l 42 961 b 22 974 38 969 29 974 b 13 972 18 974 15 974 b 0 951 4 968 0 960 b 1 943 0 949 0 946 l 236 436 l 236 22 b 258 0 236 10 246 0 b 281 22 271 0 281 10 l 281 436 l 514 943 b 517 953 515 946 517 950 b 504 972 517 961 513 968 z "},"z":{"ha":574,"x_min":0,"x_max":0,"o":"m 524 43 b 124 43 524 43 524 43 l 543 949 b 546 958 544 951 546 956 b 533 976 546 965 542 972 b 529 979 532 978 529 979 l 524 979 b 89 979 524 979 524 979 b 67 957 76 978 67 969 b 89 936 67 946 76 936 b 328 933 82 935 211 933 b 489 936 404 933 446 936 b 69 32 489 936 489 933 b 67 21 68 29 67 25 b 89 0 67 10 76 0 l 524 0 b 546 21 536 0 546 10 b 524 43 546 33 536 43 z "}}}
